<?xml version="1.0" encoding="UTF-8"?>
<!DOCTYPE svg PUBLIC "-//W3C//DTD SVG 1.1//EN" "http://www.w3.org/Graphics/SVG/1.1/DTD/svg11.dtd">
<svg xmlns="http://www.w3.org/2000/svg" version="1.1" width="1140px" height="997px" style="shape-rendering:geometricPrecision; text-rendering:geometricPrecision; image-rendering:optimizeQuality; fill-rule:evenodd; clip-rule:evenodd" xmlns:xlink="http://www.w3.org/1999/xlink">
<g><path style="opacity:1" fill="#fefefe" d="M -0.5,-0.5 C 138.167,-0.5 276.833,-0.5 415.5,-0.5C 364.659,1.90711 316.325,14.4071 270.5,37C 279.223,45.2579 286.39,54.7579 292,65.5C 305.613,90.3851 317.28,116.052 327,142.5C 305.878,120.521 281.378,103.355 253.5,91C 232.536,82.8457 211.536,82.5123 190.5,90C 180.168,95.3328 171.335,102.499 164,111.5C 163.517,112.448 163.351,113.448 163.5,114.5C 187.684,117.617 210.017,125.783 230.5,139C 256.405,155.73 280.738,174.563 303.5,195.5C 303.333,195.833 303.167,196.167 303,196.5C 262.891,172.264 219.391,160.097 172.5,160C 152.139,161.34 133.805,168.007 117.5,180C 152.09,185.65 185.423,195.65 217.5,210C 228.619,214.726 239.619,219.726 250.5,225C 205.642,222.839 172.475,241.339 151,280.5C 148.896,284.834 147.229,289.167 146,293.5C 177.066,268.541 212.566,258.041 252.5,262C 256.558,262.34 260.558,263.007 264.5,264C 255.54,271.788 247.873,280.621 241.5,290.5C 212.966,330.605 198.299,375.439 197.5,425C 199.616,463.672 205.116,501.839 214,539.5C 223.865,578.491 234.865,617.157 247,655.5C 250.291,666.331 252.791,677.331 254.5,688.5C 239.469,691.077 224.469,691.077 209.5,688.5C 183.377,671.745 154.711,664.245 123.5,666C 103.751,670.25 84.4178,675.916 65.5,683C 45.752,691.089 29.9186,703.922 18,721.5C 12.2264,731.041 9.39309,741.375 9.5,752.5C 10.4247,761.549 11.258,770.549 12,779.5C 7.48339,793.867 3.31672,808.2 -0.5,822.5C -0.5,548.167 -0.5,273.833 -0.5,-0.5 Z"/></g>
<g><path style="opacity:1" fill="#9b999a" d="M 425.5,-0.5 C 431.167,-0.5 436.833,-0.5 442.5,-0.5C 444.833,0.166667 447.167,0.833333 449.5,1.5C 441.325,1.1588 433.325,0.492135 425.5,-0.5 Z"/></g>
<g><path style="opacity:1" fill="#fefefe" d="M 442.5,-0.5 C 674.833,-0.5 907.167,-0.5 1139.5,-0.5C 1139.5,39.5 1139.5,79.5 1139.5,119.5C 1133.98,109.556 1125.32,104.389 1113.5,104C 1088.82,99.8336 1065.82,104.167 1044.5,117C 1015.61,136.217 990.107,159.384 968,186.5C 956.513,200.809 945.513,215.476 935,230.5C 926.248,236.581 918.082,243.414 910.5,251C 897.522,260.094 883.188,263.094 867.5,260C 854.191,256.681 841.524,251.681 829.5,245C 806.605,231.387 784.938,216.054 764.5,199C 727.246,165.387 689.246,132.72 650.5,101C 614.716,72.5934 576.382,47.9267 535.5,27C 508.121,14.1516 479.455,5.65156 449.5,1.5C 447.167,0.833333 444.833,0.166667 442.5,-0.5 Z"/></g>
<g><path style="opacity:1" fill="#fefefe" d="M 1139.5,129.5 C 1139.5,418.5 1139.5,707.5 1139.5,996.5C 931.833,996.5 724.167,996.5 516.5,996.5C 551.119,993.025 576.452,975.858 592.5,945C 668.088,931.542 733.088,898.042 787.5,844.5C 827.54,805.113 859.206,759.78 882.5,708.5C 901.002,708.401 918.002,713.568 933.5,724C 938.308,727.308 942.975,730.808 947.5,734.5C 962.555,758.39 982.555,776.89 1007.5,790C 1019.97,795.418 1032.64,795.752 1045.5,791C 1052.48,788.842 1059.15,786.008 1065.5,782.5C 1072.83,778.682 1079.16,773.515 1084.5,767C 1098.23,767.054 1111.23,764.054 1123.5,758C 1129.27,753.886 1133.11,748.386 1135,741.5C 1138.71,715.773 1134.05,691.773 1121,669.5C 1119.24,666.98 1117.24,664.647 1115,662.5C 1116.32,640.103 1110.65,619.77 1098,601.5C 1085.72,587.444 1070.22,579.944 1051.5,579C 1038.42,578.134 1025.42,578.8 1012.5,581C 994.802,584.218 977.469,588.385 960.5,593.5C 948.983,595.547 937.649,598.213 926.5,601.5C 934.54,569.208 943.707,537.208 954,505.5C 961.435,483.274 972.935,463.607 988.5,446.5C 999.332,436.941 1011.67,434.108 1025.5,438C 1045.5,444.495 1063.17,454.829 1078.5,469C 1099,477.003 1114.83,471.503 1126,452.5C 1132.56,433.303 1134.22,413.636 1131,393.5C 1128.09,377.625 1124.43,361.959 1120,346.5C 1113.26,327.603 1106.92,308.603 1101,289.5C 1093.2,245.507 1099.2,203.507 1119,163.5C 1128.17,153.488 1135,142.155 1139.5,129.5 Z"/></g>
<g><path style="opacity:1" fill="#eae11c" d="M 725.5,475.5 C 726.806,470.384 727.473,465.051 727.5,459.5C 729.623,444.719 732.456,430.052 736,415.5C 736.763,404.767 736.263,394.101 734.5,383.5C 734.844,377.439 734.844,371.439 734.5,365.5C 735.697,361.759 737.197,358.092 739,354.5C 740.854,353.635 742.687,352.635 744.5,351.5C 743.691,349.929 743.357,348.262 743.5,346.5C 762.817,384.5 778.317,424.167 790,465.5C 794.752,477.42 800.086,489.086 806,500.5C 817.621,516.455 825.954,514.789 831,495.5C 832.696,477.179 832.862,458.845 831.5,440.5C 833.007,429.124 834.84,417.791 837,406.5C 837.667,397.167 837.667,387.833 837,378.5C 826.628,333.35 807.795,292.183 780.5,255C 781.5,254.333 782.5,254.333 783.5,255C 792.833,259.333 802.167,263.667 811.5,268C 821.335,278.844 829.168,291.01 835,304.5C 845.918,330.667 855.418,357.334 863.5,384.5C 863.804,387.522 864.304,390.522 865,393.5C 865.383,394.056 865.883,394.389 866.5,394.5C 870.17,411.677 877.504,427.177 888.5,441C 893.705,444.903 897.538,443.737 900,437.5C 911.17,416.819 915.004,394.819 911.5,371.5C 912.513,366.86 912.513,362.193 911.5,357.5C 912.5,357.5 913.5,357.5 914.5,357.5C 913.188,354.976 912.688,352.309 913,349.5C 914.585,348.624 915.585,347.291 916,345.5C 916.915,346.328 917.581,347.328 918,348.5C 918.758,352.685 920.091,356.685 922,360.5C 922.333,364.5 922.667,368.5 923,372.5C 923.333,372.167 923.667,371.833 924,371.5C 924.647,377.333 924.314,381.667 923,384.5C 923.543,386.631 924.376,388.631 925.5,390.5C 925.669,388.883 926.003,387.216 926.5,385.5C 927.795,387.328 928.795,389.328 929.5,391.5C 930.183,391.863 930.85,392.196 931.5,392.5C 933.266,394.771 935.266,396.937 937.5,399C 939.473,399.495 941.473,399.662 943.5,399.5C 945.952,394.595 948.452,389.595 951,384.5C 952.992,378.857 954.826,373.19 956.5,367.5C 957.965,362.41 958.632,357.077 958.5,351.5C 958.632,345.923 957.965,340.59 956.5,335.5C 949.25,304.664 934.917,277.664 913.5,254.5C 916.738,252.151 920.071,251.984 923.5,254C 949.17,273.824 968.17,298.657 980.5,328.5C 980.824,334.299 982.157,339.799 984.5,345C 984.333,345.833 984.167,346.667 984,347.5C 982.883,346.051 982.216,344.384 982,342.5C 981.833,343.333 981.667,344.167 981.5,345C 982.418,347.086 983.085,349.253 983.5,351.5C 984.5,351.5 985.5,351.5 986.5,351.5C 988.18,358.621 989.013,365.955 989,373.5C 989.667,374.167 990.333,374.833 991,375.5C 991.5,385.161 991.666,394.828 991.5,404.5C 991.023,413.888 990.023,423.221 988.5,432.5C 982.508,435.948 977.008,440.282 972,445.5C 968,451.5 964,457.5 960,463.5C 957.257,469.985 954.257,476.319 951,482.5C 935.208,523.334 922.041,565.001 911.5,607.5C 906.535,610.488 901.202,612.488 895.5,613.5C 888.126,613.616 880.792,613.116 873.5,612C 866.487,610.49 859.487,608.99 852.5,607.5C 836.366,601.766 821.033,594.433 806.5,585.5C 806.167,585.833 805.833,586.167 805.5,586.5C 810.029,598.058 809.362,609.225 803.5,620C 794.576,621.161 785.909,620.161 777.5,617C 765.902,612.202 754.902,606.369 744.5,599.5C 743.167,598.067 741.667,596.733 740,595.5C 740.077,597.772 741.243,599.438 743.5,600.5C 775.03,639.427 812.364,671.594 855.5,697C 861.274,700.222 867.274,702.888 873.5,705C 874.517,706.049 874.684,707.216 874,708.5C 830.603,790.231 768.103,853.064 686.5,897C 657.957,911.939 628.291,924.106 597.5,933.5C 596.833,933.167 596.167,932.833 595.5,932.5C 602.693,915.249 611.026,898.582 620.5,882.5C 619.998,881.479 619.332,881.312 618.5,882C 608.177,890.655 599.677,900.822 593,912.5C 589.586,918.997 585.919,925.33 582,931.5C 575.965,956.366 560.798,972.7 536.5,980.5C 533.103,980.741 529.769,981.407 526.5,982.5C 516.152,982.016 505.819,981.683 495.5,981.5C 476.062,976.346 461.228,965.013 451,947.5C 443.766,938.812 434.933,932.479 424.5,928.5C 422.829,928.668 421.496,929.335 420.5,930.5C 419.957,930.56 419.624,930.893 419.5,931.5C 422.086,932.48 424.753,932.813 427.5,932.5C 428.873,932.343 430.207,932.51 431.5,933C 439.082,938.653 445.415,945.487 450.5,953.5C 447.038,954.482 443.371,954.815 439.5,954.5C 355.042,950.079 279.709,921.912 213.5,870C 204.598,861.768 196.431,852.934 189,843.5C 184.279,836.724 180.612,829.391 178,821.5C 176.804,807.224 179.804,793.891 187,781.5C 191.595,773.967 196.429,766.633 201.5,759.5C 208.465,751.2 215.798,743.2 223.5,735.5C 232.541,726.959 242.041,718.959 252,711.5C 260.105,698.273 262.772,683.94 260,668.5C 258.584,663.585 257.584,658.585 257,653.5C 250.483,636.115 244.649,618.449 239.5,600.5C 239.412,595.67 238.078,591.337 235.5,587.5C 225.945,558.663 218.112,529.329 212,499.5C 211.502,496.183 211.335,492.85 211.5,489.5C 212.219,487.236 212.552,484.903 212.5,482.5C 213.146,476.245 214.146,469.911 215.5,463.5C 216.281,464.729 216.781,466.062 217,467.5C 217.87,466.892 218.37,466.059 218.5,465C 217.105,463.279 216.439,461.279 216.5,459C 217.322,455.859 217.989,452.693 218.5,449.5C 220.75,442.41 225.083,436.91 231.5,433C 228.217,432.257 225.217,432.924 222.5,435C 216.386,439.729 212.72,445.896 211.5,453.5C 209.96,455.838 209.294,458.505 209.5,461.5C 209.5,462.833 209.5,464.167 209.5,465.5C 208.833,465.833 208.167,466.167 207.5,466.5C 201.271,404.578 215.271,347.911 249.5,296.5C 255.856,287.634 263.19,279.467 271.5,272C 279.072,271.262 286.405,272.262 293.5,275C 300.789,278.311 307.789,282.144 314.5,286.5C 344.137,254.421 379.803,231.254 421.5,217C 432.034,213.267 442.701,209.933 453.5,207C 455.833,206.333 458.167,206.333 460.5,207C 483.601,214.545 504.268,226.212 522.5,242C 547.373,264.984 568.54,290.818 586,319.5C 629.82,394.255 663.153,473.588 686,557.5C 687.965,565.168 692.465,570.501 699.5,573.5C 703.866,572.56 707.366,570.227 710,566.5C 714.173,559.318 717.173,551.652 719,543.5C 722.557,520.961 724.723,498.294 725.5,475.5 Z"/></g>
<g><path style="opacity:1" fill="#07070b" d="M 415.5,-0.5 C 418.833,-0.5 422.167,-0.5 425.5,-0.5C 433.325,0.492135 441.325,1.1588 449.5,1.5C 479.455,5.65156 508.121,14.1516 535.5,27C 576.382,47.9267 614.716,72.5934 650.5,101C 689.246,132.72 727.246,165.387 764.5,199C 784.938,216.054 806.605,231.387 829.5,245C 841.524,251.681 854.191,256.681 867.5,260C 883.188,263.094 897.522,260.094 910.5,251C 918.082,243.414 926.248,236.581 935,230.5C 945.513,215.476 956.513,200.809 968,186.5C 990.107,159.384 1015.61,136.217 1044.5,117C 1065.82,104.167 1088.82,99.8336 1113.5,104C 1125.32,104.389 1133.98,109.556 1139.5,119.5C 1139.5,122.833 1139.5,126.167 1139.5,129.5C 1135,142.155 1128.17,153.488 1119,163.5C 1099.2,203.507 1093.2,245.507 1101,289.5C 1106.92,308.603 1113.26,327.603 1120,346.5C 1124.43,361.959 1128.09,377.625 1131,393.5C 1134.22,413.636 1132.56,433.303 1126,452.5C 1114.83,471.503 1099,477.003 1078.5,469C 1063.17,454.829 1045.5,444.495 1025.5,438C 1011.67,434.108 999.332,436.941 988.5,446.5C 986.952,446.179 986.285,445.179 986.5,443.5C 985.325,443.719 984.325,443.386 983.5,442.5C 985.422,441.289 987.255,439.956 989,438.5C 988.865,436.575 988.698,434.575 988.5,432.5C 990.023,423.221 991.023,413.888 991.5,404.5C 994.22,378.266 990.554,352.933 980.5,328.5C 968.17,298.657 949.17,273.824 923.5,254C 920.071,251.984 916.738,252.151 913.5,254.5C 934.917,277.664 949.25,304.664 956.5,335.5C 957.794,346.169 957.794,356.835 956.5,367.5C 954.826,373.19 952.992,378.857 951,384.5C 948.452,389.595 945.952,394.595 943.5,399.5C 941.473,399.662 939.473,399.495 937.5,399C 935.266,396.937 933.266,394.771 931.5,392.5C 923.031,350.27 906.864,311.27 883,275.5C 880.715,273.093 878.549,270.593 876.5,268C 874.866,267.506 873.199,267.34 871.5,267.5C 886.599,293.707 898.433,321.373 907,350.5C 908.589,357.621 910.089,364.621 911.5,371.5C 915.004,394.819 911.17,416.819 900,437.5C 897.538,443.737 893.705,444.903 888.5,441C 877.504,427.177 870.17,411.677 866.5,394.5C 866.277,390.838 865.277,387.505 863.5,384.5C 855.418,357.334 845.918,330.667 835,304.5C 829.168,291.01 821.335,278.844 811.5,268C 802.167,263.667 792.833,259.333 783.5,255C 782.5,254.333 781.5,254.333 780.5,255C 807.795,292.183 826.628,333.35 837,378.5C 837.667,387.833 837.667,397.167 837,406.5C 834.84,417.791 833.007,429.124 831.5,440.5C 832.862,458.845 832.696,477.179 831,495.5C 825.954,514.789 817.621,516.455 806,500.5C 800.086,489.086 794.752,477.42 790,465.5C 778.317,424.167 762.817,384.5 743.5,346.5C 726.978,309.102 706.145,274.435 681,242.5C 669.416,228.9 655.582,218.4 639.5,211C 635.304,209.23 630.971,208.063 626.5,207.5C 623.696,206.362 620.696,206.195 617.5,207C 618.044,207.717 618.711,208.217 619.5,208.5C 653.325,232.492 680.491,262.492 701,298.5C 709.351,316.914 717.685,335.247 726,353.5C 729.169,363.476 732.002,373.476 734.5,383.5C 736.263,394.101 736.763,404.767 736,415.5C 732.456,430.052 729.623,444.719 727.5,459.5C 726.043,464.598 725.376,469.931 725.5,475.5C 724.723,498.294 722.557,520.961 719,543.5C 717.173,551.652 714.173,559.318 710,566.5C 707.366,570.227 703.866,572.56 699.5,573.5C 692.465,570.501 687.965,565.168 686,557.5C 663.153,473.588 629.82,394.255 586,319.5C 568.54,290.818 547.373,264.984 522.5,242C 504.268,226.212 483.601,214.545 460.5,207C 458.167,206.333 455.833,206.333 453.5,207C 442.701,209.933 432.034,213.267 421.5,217C 379.803,231.254 344.137,254.421 314.5,286.5C 307.789,282.144 300.789,278.311 293.5,275C 286.405,272.262 279.072,271.262 271.5,272C 263.19,279.467 255.856,287.634 249.5,296.5C 247.04,294.856 245.54,292.523 245,289.5C 244.529,291.246 243.862,292.913 243,294.5C 241.812,293.437 241.312,292.103 241.5,290.5C 247.873,280.621 255.54,271.788 264.5,264C 260.558,263.007 256.558,262.34 252.5,262C 212.566,258.041 177.066,268.541 146,293.5C 147.229,289.167 148.896,284.834 151,280.5C 172.475,241.339 205.642,222.839 250.5,225C 239.619,219.726 228.619,214.726 217.5,210C 185.423,195.65 152.09,185.65 117.5,180C 133.805,168.007 152.139,161.34 172.5,160C 219.391,160.097 262.891,172.264 303,196.5C 303.167,196.167 303.333,195.833 303.5,195.5C 280.738,174.563 256.405,155.73 230.5,139C 210.017,125.783 187.684,117.617 163.5,114.5C 163.351,113.448 163.517,112.448 164,111.5C 171.335,102.499 180.168,95.3328 190.5,90C 211.536,82.5123 232.536,82.8457 253.5,91C 281.378,103.355 305.878,120.521 327,142.5C 317.28,116.052 305.613,90.3851 292,65.5C 286.39,54.7579 279.223,45.2579 270.5,37C 316.325,14.4071 364.659,1.90711 415.5,-0.5 Z"/></g>
<g><path style="opacity:1" fill="#0a3872" d="M 255.5,232.5 C 248.313,232.175 241.313,232.509 234.5,233.5C 230.802,233.552 227.135,233.886 223.5,234.5C 226.203,233.037 229.203,232.204 232.5,232C 240.345,231.178 248.011,231.344 255.5,232.5 Z"/></g>
<g><path style="opacity:1" fill="#070a13" d="M 715.5,175.5 C 715.264,192.41 714.598,209.244 713.5,226C 714,226.5 714.5,227 715,227.5C 715.249,226.376 715.749,225.376 716.5,224.5C 716.882,220.084 717.882,216.084 719.5,212.5C 718.854,217.75 718.854,222.917 719.5,228C 741.247,236.441 763.247,243.941 785.5,250.5C 786.713,250.747 787.38,251.414 787.5,252.5C 784.086,252.736 780.753,253.402 777.5,254.5C 776.754,255.736 776.421,257.07 776.5,258.5C 774.847,256.039 772.847,253.872 770.5,252C 735.906,240.692 701.573,228.859 667.5,216.5C 670.898,216.142 674.065,216.808 677,218.5C 677.945,218.095 678.612,217.428 679,216.5C 680.011,217.337 681.178,217.67 682.5,217.5C 682.5,210.5 682.5,203.5 682.5,196.5C 683.491,202.979 683.824,209.646 683.5,216.5C 693.039,219.301 702.706,221.635 712.5,223.5C 712.999,207.317 713.999,191.317 715.5,175.5 Z"/></g>
<g><path style="opacity:1" fill="#144587" d="M 677.5,191.5 C 678.972,198.951 679.639,206.618 679.5,214.5C 676.169,214.982 673.503,213.982 671.5,211.5C 673.5,211.5 675.5,211.5 677.5,211.5C 677.5,204.833 677.5,198.167 677.5,191.5 Z"/></g>
<g><path style="opacity:1" fill="#b5ac55" d="M 626.5,207.5 C 623.941,207.198 621.607,207.532 619.5,208.5C 618.711,208.217 618.044,207.717 617.5,207C 620.696,206.195 623.696,206.362 626.5,207.5 Z"/></g>
<g><path style="opacity:1" fill="#0363cd" d="M 511.5,197.5 C 541.571,195.426 570.904,198.926 599.5,208C 623.531,217.017 643.698,231.517 660,251.5C 684.032,284.215 703.365,319.548 718,357.5C 721.802,371.527 725.468,385.527 729,399.5C 729.667,406.5 729.667,413.5 729,420.5C 725.177,436.469 722.011,452.469 719.5,468.5C 718.778,468.918 718.278,469.584 718,470.5C 717.625,475.21 716.958,479.877 716,484.5C 715.183,490.016 715.349,495.35 716.5,500.5C 718.094,521.559 714.927,541.893 707,561.5C 703.645,566.31 699.979,566.644 696,562.5C 694.092,559.785 692.759,556.785 692,553.5C 686.259,534.837 680.759,516.004 675.5,497C 669.587,480.259 663.087,463.759 656,447.5C 638.862,401.558 617.195,357.891 591,316.5C 572.445,289.104 551.278,263.77 527.5,240.5C 517.239,232.067 506.573,224.233 495.5,217C 487.254,212.569 478.92,208.402 470.5,204.5C 469.146,202.538 469.813,201.538 472.5,201.5C 478.065,199.977 483.732,199.31 489.5,199.5C 497.037,199.482 504.371,198.815 511.5,197.5 Z"/></g>
<g><path style="opacity:1" fill="#0d4f9b" d="M 728.5,178.5 C 726.983,178.489 725.816,177.823 725,176.5C 723.507,185.781 722.507,195.114 722,204.5C 721.218,207.31 720.384,209.977 719.5,212.5C 720.112,200.043 721.445,187.71 723.5,175.5C 725.933,175.273 727.599,176.273 728.5,178.5 Z"/></g>
<g><path style="opacity:1" fill="#0f488d" d="M 511.5,197.5 C 504.371,198.815 497.037,199.482 489.5,199.5C 496.588,197.761 503.921,197.094 511.5,197.5 Z"/></g>
<g><path style="opacity:1" fill="#090b17" d="M 1098.5,179.5 C 1096.98,180.41 1095.31,181.243 1093.5,182C 1094.31,183.113 1094.97,184.279 1095.5,185.5C 1089.61,184.044 1083.61,183.377 1077.5,183.5C 1081.7,182.201 1086.04,182.201 1090.5,183.5C 1093.06,181.981 1093.06,180.481 1090.5,179C 1078.77,178.012 1067.44,179.512 1056.5,183.5C 1056.81,184.308 1057.31,184.975 1058,185.5C 1060.38,184.565 1062.88,184.232 1065.5,184.5C 1039.1,191.591 1016.1,204.757 996.5,224C 984.895,235.764 973.895,247.931 963.5,260.5C 963.719,259.325 963.386,258.325 962.5,257.5C 961.585,259.98 960.085,260.647 958,259.5C 955.504,262.314 954.17,265.647 954,269.5C 952.855,268.364 951.688,267.364 950.5,266.5C 973.644,238.2 1000.31,213.367 1030.5,192C 1032.17,191.667 1033.83,191.333 1035.5,191C 1054.9,178.766 1075.9,174.933 1098.5,179.5 Z"/></g>
<g><path style="opacity:1" fill="#0f4388" d="M 596.5,193.5 C 601.822,194.029 607.156,194.529 612.5,195C 615.647,195.956 618.647,197.123 621.5,198.5C 612.943,197.271 604.609,195.604 596.5,193.5 Z"/></g>
<g><path style="opacity:1" fill="#143b76" d="M 580.5,191.5 C 584.182,191.335 587.848,191.501 591.5,192C 592.416,192.278 593.082,192.778 593.5,193.5C 588.9,193.72 584.567,193.054 580.5,191.5 Z"/></g>
<g><path style="opacity:1" fill="#02537b" d="M 483.5,172.5 C 484.81,178.288 485.477,184.288 485.5,190.5C 504.5,190.5 523.5,190.5 542.5,190.5C 523.341,191.497 504.007,191.83 484.5,191.5C 484.1,185.171 483.767,178.838 483.5,172.5 Z"/></g>
<g><path style="opacity:1" fill="#0393cd" d="M 1077.5,183.5 C 1083.61,183.377 1089.61,184.044 1095.5,185.5C 1085.44,204.158 1081.77,224.158 1084.5,245.5C 1075.93,243.635 1067.26,243.135 1058.5,244C 1036.96,248.902 1017.63,258.235 1000.5,272C 991.646,280.189 982.812,288.356 974,296.5C 967.548,289.631 961.548,282.298 956,274.5C 955.333,273.167 955.333,271.833 956,270.5C 958.752,267.316 961.252,263.982 963.5,260.5C 973.895,247.931 984.895,235.764 996.5,224C 1016.1,204.757 1039.1,191.591 1065.5,184.5C 1069.45,183.728 1073.45,183.395 1077.5,183.5 Z"/></g>
<g><path style="opacity:1" fill="#0f4587" d="M 177.5,183.5 C 183.363,184.03 189.03,185.197 194.5,187C 196.993,188.419 199.326,189.919 201.5,191.5C 193.411,188.818 185.411,186.151 177.5,183.5 Z"/></g>
<g><path style="opacity:1" fill="#0463cc" d="M 728.5,178.5 C 761.75,204.945 794.75,231.612 827.5,258.5C 824.894,259.652 822.227,259.818 819.5,259C 808.88,256.511 798.213,254.344 787.5,252.5C 787.38,251.414 786.713,250.747 785.5,250.5C 763.247,243.941 741.247,236.441 719.5,228C 718.854,222.917 718.854,217.75 719.5,212.5C 720.384,209.977 721.218,207.31 722,204.5C 722.507,195.114 723.507,185.781 725,176.5C 725.816,177.823 726.983,178.489 728.5,178.5 Z"/></g>
<g><path style="opacity:1" fill="#030203" d="M 1077.5,183.5 C 1073.45,183.395 1069.45,183.728 1065.5,184.5C 1062.88,184.232 1060.38,184.565 1058,185.5C 1057.31,184.975 1056.81,184.308 1056.5,183.5C 1067.44,179.512 1078.77,178.012 1090.5,179C 1093.06,180.481 1093.06,181.981 1090.5,183.5C 1086.04,182.201 1081.7,182.201 1077.5,183.5 Z"/></g>
<g><path style="opacity:1" fill="#0860c5" d="M 239.5,175.5 C 234.779,174.82 230.113,173.82 225.5,172.5C 221.971,173.332 218.471,174.332 215,175.5C 212.366,175.066 209.866,174.233 207.5,173C 198.316,172.735 189.149,172.235 180,171.5C 176.915,171.644 174.082,172.478 171.5,174C 172.108,174.87 172.941,175.37 174,175.5C 177.121,174.464 180.287,174.297 183.5,175C 179.916,176.073 176.25,176.74 172.5,177C 171.284,178.74 169.618,179.74 167.5,180C 175.439,178.782 183.439,177.615 191.5,176.5C 191.5,177.5 191.5,178.5 191.5,179.5C 189.658,179.277 187.825,178.943 186,178.5C 184.596,178.509 183.43,179.009 182.5,180C 185.882,181.895 189.382,182.395 193,181.5C 197.387,183.277 201.554,185.443 205.5,188C 204.177,188.816 203.511,189.983 203.5,191.5C 202.833,191.5 202.167,191.5 201.5,191.5C 199.326,189.919 196.993,188.419 194.5,187C 189.03,185.197 183.363,184.03 177.5,183.5C 165.036,180.525 152.369,178.691 139.5,178C 138.167,177.333 138.167,176.667 139.5,176C 150.677,170.357 162.677,167.357 175.5,167C 197.552,165.589 218.886,168.422 239.5,175.5 Z"/></g>
<g><path style="opacity:1" fill="#1458a9" d="M 673.5,143.5 C 674.302,144.952 674.802,146.618 675,148.5C 675.617,162.86 676.45,177.193 677.5,191.5C 675.059,175.756 673.726,159.756 673.5,143.5 Z"/></g>
<g><path style="opacity:1" fill="#0593cc" d="M 715.5,175.5 C 713.999,191.317 712.999,207.317 712.5,223.5C 702.706,221.635 693.039,219.301 683.5,216.5C 683.824,209.646 683.491,202.979 682.5,196.5C 682.114,178.321 681.448,160.155 680.5,142C 680.833,140.5 681.167,139 681.5,137.5C 692.761,147.383 703.928,157.383 715,167.5C 715.497,170.146 715.664,172.813 715.5,175.5 Z"/></g>
<g><path style="opacity:1" fill="#070d22" d="M 548.5,95.5 C 550.017,100.586 550.85,105.919 551,111.5C 551.5,122.161 551.667,132.828 551.5,143.5C 550.671,135.343 550.171,127.01 550,118.5C 548.984,117.366 548.317,117.699 548,119.5C 547.833,118.167 547.667,116.833 547.5,115.5C 548.332,108.859 548.665,102.192 548.5,95.5 Z"/></g>
<g><path style="opacity:1" fill="#0463cc" d="M 1122.5,111.5 C 1125.51,111.423 1127.68,112.756 1129,115.5C 1130.01,122.558 1129.18,129.391 1126.5,136C 1122.93,141.637 1119.77,147.471 1117,153.5C 1110.06,161.737 1103.9,170.404 1098.5,179.5C 1075.9,174.933 1054.9,178.766 1035.5,191C 1033.83,191.333 1032.17,191.667 1030.5,192C 1000.31,213.367 973.644,238.2 950.5,266.5C 945.852,263.184 941.519,259.518 937.5,255.5C 937.5,254.5 937.5,253.5 937.5,252.5C 935.335,252.884 933.668,252.217 932.5,250.5C 933.689,249.571 935.022,249.238 936.5,249.5C 937.167,246.833 937.833,244.167 938.5,241.5C 937.5,241.5 936.5,241.5 935.5,241.5C 935.351,240.448 935.517,239.448 936,238.5C 940.214,236.387 942.714,233.053 943.5,228.5C 969.537,194.962 999.203,164.795 1032.5,138C 1051.29,126.942 1071.29,118.276 1092.5,112C 1095.15,111.503 1097.81,111.336 1100.5,111.5C 1107.83,110.167 1115.17,110.167 1122.5,111.5 Z"/></g>
<g><path style="opacity:1" fill="#13478b" d="M 1122.5,111.5 C 1115.17,110.167 1107.83,110.167 1100.5,111.5C 1103.77,110.178 1107.43,109.511 1111.5,109.5C 1115.57,109.511 1119.23,110.178 1122.5,111.5 Z"/></g>
<g><path style="opacity:1" fill="#0d386b" d="M 231.5,92.5 C 221.335,92.0927 211.335,93.0927 201.5,95.5C 205.132,93.46 209.132,92.2933 213.5,92C 219.681,91.1808 225.681,91.3475 231.5,92.5 Z"/></g>
<g><path style="opacity:1" fill="#0363cd" d="M 673.5,143.5 C 673.726,159.756 675.059,175.756 677.5,191.5C 677.5,198.167 677.5,204.833 677.5,211.5C 675.5,211.5 673.5,211.5 671.5,211.5C 654.946,206.76 638.28,202.427 621.5,198.5C 618.647,197.123 615.647,195.956 612.5,195C 607.156,194.529 601.822,194.029 596.5,193.5C 595.5,193.5 594.5,193.5 593.5,193.5C 593.082,192.778 592.416,192.278 591.5,192C 587.848,191.501 584.182,191.335 580.5,191.5C 570.833,191.5 561.167,191.5 551.5,191.5C 551.5,175.5 551.5,159.5 551.5,143.5C 551.667,132.828 551.5,122.161 551,111.5C 550.85,105.919 550.017,100.586 548.5,95.5C 548.665,91.8183 548.499,88.1516 548,84.5C 546.057,76.5727 544.39,68.5727 543,60.5C 541.183,54.554 538.683,48.8873 535.5,43.5C 535.833,43.1667 536.167,42.8333 536.5,42.5C 575.953,64.3916 614.62,87.5583 652.5,112C 658.686,116.93 664.686,122.097 670.5,127.5C 672.772,132.588 673.772,137.921 673.5,143.5 Z"/></g>
<g><path style="opacity:1" fill="#092f65" d="M 301.5,31.5 C 297.007,34.5095 292.007,36.6762 286.5,38C 285.316,39.1455 285.316,40.3121 286.5,41.5C 283.04,40.7396 282.707,39.2396 285.5,37C 290.749,34.8735 296.082,33.0401 301.5,31.5 Z"/></g>
<g><path style="opacity:1" fill="#0f3f7a" d="M 335.5,19.5 C 330.5,21.943 325.166,23.6096 319.5,24.5C 324.5,22.057 329.834,20.3904 335.5,19.5 Z"/></g>
<g><path style="opacity:1" fill="#0294cd" d="M 431.5,10.5 C 453.94,11.9542 475.607,16.7876 496.5,25C 510.463,31.5585 521.963,41.0585 531,53.5C 538.132,70.0644 542.132,87.3977 543,105.5C 545.031,134 544.864,162.333 542.5,190.5C 523.5,190.5 504.5,190.5 485.5,190.5C 485.477,184.288 484.81,178.288 483.5,172.5C 477.86,120.031 458.693,73.3648 426,32.5C 418.938,25.2701 411.771,18.2701 404.5,11.5C 413.318,10.5067 422.318,10.1734 431.5,10.5 Z"/></g>
<g><path style="opacity:1" fill="#0363cd" d="M 391.5,11.5 C 424.855,46.8432 450.688,87.1765 469,132.5C 471.656,142.486 474.323,152.486 477,162.5C 478.304,172.789 478.804,183.122 478.5,193.5C 437.945,201.013 399.945,215.013 364.5,235.5C 357.376,240.901 350.043,246.068 342.5,251C 332.294,259.873 322.794,269.373 314,279.5C 293.854,264.993 271.687,255.993 247.5,252.5C 238.009,251.342 228.342,251.175 218.5,252C 217.263,252.232 216.263,252.732 215.5,253.5C 197.064,256.366 180.064,263.032 164.5,273.5C 164.167,273.167 163.833,272.833 163.5,272.5C 178.001,251.365 198.001,238.698 223.5,234.5C 227.135,233.886 230.802,233.552 234.5,233.5C 245.564,233.094 256.564,233.594 267.5,235C 268.126,235.75 268.626,236.584 269,237.5C 273.119,236.341 277.286,236.341 281.5,237.5C 283.604,237.799 285.604,237.466 287.5,236.5C 272.567,226.749 257.234,217.583 241.5,209C 228.594,203.352 215.927,197.519 203.5,191.5C 203.511,189.983 204.177,188.816 205.5,188C 201.554,185.443 197.387,183.277 193,181.5C 189.382,182.395 185.882,181.895 182.5,180C 183.43,179.009 184.596,178.509 186,178.5C 187.825,178.943 189.658,179.277 191.5,179.5C 191.5,178.5 191.5,177.5 191.5,176.5C 183.439,177.615 175.439,178.782 167.5,180C 169.618,179.74 171.284,178.74 172.5,177C 176.25,176.74 179.916,176.073 183.5,175C 180.287,174.297 177.121,174.464 174,175.5C 172.941,175.37 172.108,174.87 171.5,174C 174.082,172.478 176.915,171.644 180,171.5C 189.149,172.235 198.316,172.735 207.5,173C 209.866,174.233 212.366,175.066 215,175.5C 218.471,174.332 221.971,173.332 225.5,172.5C 230.113,173.82 234.779,174.82 239.5,175.5C 246.215,177.084 252.548,179.418 258.5,182.5C 264.71,186.341 271.377,189.341 278.5,191.5C 291.4,197.956 303.734,205.456 315.5,214C 317.65,215.411 319.984,216.245 322.5,216.5C 322.498,212.489 321.332,208.822 319,205.5C 286.48,162.644 244.647,132.644 193.5,115.5C 186.826,113.998 180.159,112.498 173.5,111C 179.643,103.756 187.31,98.7556 196.5,96C 198.134,95.5065 199.801,95.3398 201.5,95.5C 211.335,93.0927 221.335,92.0927 231.5,92.5C 237.878,93.0657 244.212,94.2323 250.5,96C 283.328,109.826 310.662,130.826 332.5,159C 333.833,159.667 335.167,159.667 336.5,159C 337.591,156.936 337.758,154.769 337,152.5C 329.002,126.842 320.002,101.508 310,76.5C 304.646,66.7143 299.146,57.0477 293.5,47.5C 290.507,46.1666 288.173,44.1666 286.5,41.5C 285.316,40.3121 285.316,39.1455 286.5,38C 292.007,36.6762 297.007,34.5095 301.5,31.5C 307.249,28.6293 313.249,26.296 319.5,24.5C 325.166,23.6096 330.5,21.943 335.5,19.5C 341.198,16.9012 347.198,14.9012 353.5,13.5C 358.079,12.1838 362.746,11.5171 367.5,11.5C 375.525,10.2814 383.525,10.2814 391.5,11.5 Z"/></g>
<g><path style="opacity:1" fill="#13488e" d="M 258.5,182.5 C 264.76,183.922 270.76,186.088 276.5,189C 277.381,189.708 278.047,190.542 278.5,191.5C 271.377,189.341 264.71,186.341 258.5,182.5 Z"/></g>
<g><path style="opacity:1" fill="#02415a" d="M 431.5,10.5 C 422.318,10.1734 413.318,10.5067 404.5,11.5C 403.957,11.44 403.624,11.1067 403.5,10.5C 412.992,9.17783 422.325,9.17783 431.5,10.5 Z"/></g>
<g><path style="opacity:1" fill="#032c60" d="M 391.5,11.5 C 383.525,10.2814 375.525,10.2814 367.5,11.5C 371.728,9.97451 376.228,9.30784 381,9.5C 384.167,9.66667 387.333,9.83333 390.5,10C 391.056,10.3826 391.389,10.8826 391.5,11.5 Z"/></g>
<g><path style="opacity:1" fill="#1259ab" d="M 234.5,233.5 C 241.313,232.509 248.313,232.175 255.5,232.5C 264.657,232.349 273.324,234.016 281.5,237.5C 277.286,236.341 273.119,236.341 269,237.5C 268.626,236.584 268.126,235.75 267.5,235C 256.564,233.594 245.564,233.094 234.5,233.5 Z"/></g>
<g><path style="opacity:1" fill="#0363cd" d="M 667.5,216.5 C 701.573,228.859 735.906,240.692 770.5,252C 772.847,253.872 774.847,256.039 776.5,258.5C 793.067,283.728 806.734,310.395 817.5,338.5C 821.278,351.559 824.945,364.559 828.5,377.5C 828.5,380.167 828.5,382.833 828.5,385.5C 828.758,402.741 828.092,419.907 826.5,437C 827.121,452.161 827.454,467.328 827.5,482.5C 827.657,489.886 825.657,496.552 821.5,502.5C 819.647,503.76 817.814,503.76 816,502.5C 811.66,494.521 807.493,486.355 803.5,478C 783.847,421.238 761.68,365.738 737,311.5C 726.429,291.625 715.096,272.291 703,253.5C 691.754,238.588 678.254,226.088 662.5,216C 664.197,215.616 665.863,215.782 667.5,216.5 Z"/></g>
<g><path style="opacity:1" fill="#0a58b1" d="M 943.5,228.5 C 942.714,233.053 940.214,236.387 936,238.5C 935.517,239.448 935.351,240.448 935.5,241.5C 936.5,241.5 937.5,241.5 938.5,241.5C 937.833,244.167 937.167,246.833 936.5,249.5C 935.022,249.238 933.689,249.571 932.5,250.5C 933.668,252.217 935.335,252.884 937.5,252.5C 937.5,253.5 937.5,254.5 937.5,255.5C 933.627,253.963 930.293,251.63 927.5,248.5C 931.913,240.955 937.247,234.288 943.5,228.5 Z"/></g>
<g><path style="opacity:1" fill="#032450" d="M 247.5,252.5 C 236.802,252.263 226.135,252.596 215.5,253.5C 216.263,252.732 217.263,252.232 218.5,252C 228.342,251.175 238.009,251.342 247.5,252.5 Z"/></g>
<g><path style="opacity:1" fill="#0363cd" d="M 1093.5,295.5 C 1093.89,298.839 1094.39,302.173 1095,305.5C 1098.5,312.345 1101,319.511 1102.5,327C 1100.9,330.92 1098.57,331.42 1095.5,328.5C 1092.23,327.513 1088.9,327.18 1085.5,327.5C 1075.49,327.334 1065.49,327.5 1055.5,328C 1053.29,328.191 1051.29,328.691 1049.5,329.5C 1038.46,331.344 1027.46,333.511 1016.5,336C 1009.24,338.814 1001.91,341.314 994.5,343.5C 993.365,338.959 992.198,334.292 991,329.5C 986.614,319.896 982.114,310.396 977.5,301C 981.622,295.71 986.289,290.877 991.5,286.5C 992.583,286.539 993.583,286.873 994.5,287.5C 997.346,283.495 1001.01,280.328 1005.5,278C 1006.25,277.329 1006.59,276.496 1006.5,275.5C 1028.84,257.502 1054.5,249.502 1083.5,251.5C 1085.15,259.772 1086.65,268.105 1088,276.5C 1090.91,282.486 1092.75,288.819 1093.5,295.5 Z"/></g>
<g><path style="opacity:1" fill="#e8df22" d="M 626.5,207.5 C 630.971,208.063 635.304,209.23 639.5,211C 655.582,218.4 669.416,228.9 681,242.5C 706.145,274.435 726.978,309.102 743.5,346.5C 743.357,348.262 743.691,349.929 744.5,351.5C 742.687,352.635 740.854,353.635 739,354.5C 737.197,358.092 735.697,361.759 734.5,365.5C 734.844,371.439 734.844,377.439 734.5,383.5C 732.002,373.476 729.169,363.476 726,353.5C 717.685,335.247 709.351,316.914 701,298.5C 680.491,262.492 653.325,232.492 619.5,208.5C 621.607,207.532 623.941,207.198 626.5,207.5 Z"/></g>
<g><path style="opacity:1" fill="#0c3772" d="M 908.5,260.5 C 904.874,263.495 900.541,265.162 895.5,265.5C 899.68,263.658 904.013,261.992 908.5,260.5 Z"/></g>
<g><path style="opacity:1" fill="#072448" d="M 847.5,267.5 C 838.318,267.173 829.318,267.507 820.5,268.5C 819.624,268.631 818.957,268.298 818.5,267.5C 828.325,266.177 837.992,266.177 847.5,267.5 Z"/></g>
<g><path style="opacity:1" fill="#0463cc" d="M 847.5,267.5 C 852.875,267.172 858.208,267.505 863.5,268.5C 869.007,275.506 873.507,283.172 877,291.5C 885.427,311.036 892.76,331.036 899,351.5C 900.595,360.616 902.595,369.616 905,378.5C 905.667,389.5 905.667,400.5 905,411.5C 903,417.5 901,423.5 899,429.5C 896.121,435.343 892.288,436.009 887.5,431.5C 886.502,428.836 885.002,426.503 883,424.5C 875.621,399.362 867.621,374.362 859,349.5C 853.444,339.509 849.444,328.842 847,317.5C 841.612,305.056 835.945,292.722 830,280.5C 827.35,276.025 824.183,272.025 820.5,268.5C 829.318,267.507 838.318,267.173 847.5,267.5 Z"/></g>
<g><path style="opacity:1" fill="#10519a" d="M 1006.5,275.5 C 1006.59,276.496 1006.25,277.329 1005.5,278C 1001.01,280.328 997.346,283.495 994.5,287.5C 993.583,286.873 992.583,286.539 991.5,286.5C 996.214,282.454 1001.21,278.788 1006.5,275.5 Z"/></g>
<g><path style="opacity:1" fill="#0b0b0a" d="M 249.5,296.5 C 215.271,347.911 201.271,404.578 207.5,466.5C 207.867,472.172 208.367,477.839 209,483.5C 209.24,485.852 210.073,487.852 211.5,489.5C 211.335,492.85 211.502,496.183 212,499.5C 218.112,529.329 225.945,558.663 235.5,587.5C 236.388,592.072 237.721,596.405 239.5,600.5C 244.649,618.449 250.483,636.115 257,653.5C 257.584,658.585 258.584,663.585 260,668.5C 262.772,683.94 260.105,698.273 252,711.5C 242.041,718.959 232.541,726.959 223.5,735.5C 223.227,733.549 223.893,732.049 225.5,731C 222.502,728.192 223.169,726.859 227.5,727C 228.252,726.329 228.586,725.496 228.5,724.5C 230.023,721.636 232.357,719.969 235.5,719.5C 236.434,718.432 236.768,717.099 236.5,715.5C 232.131,715.533 227.798,715.2 223.5,714.5C 223.082,713.778 222.416,713.278 221.5,713C 227.916,713.129 233.916,712.295 239.5,710.5C 242.945,708.616 246.112,706.282 249,703.5C 250.009,701.975 250.509,700.308 250.5,698.5C 236.514,700.21 222.848,698.876 209.5,694.5C 209.119,693.069 208.119,692.236 206.5,692C 207.163,690.482 208.163,689.315 209.5,688.5C 224.469,691.077 239.469,691.077 254.5,688.5C 252.791,677.331 250.291,666.331 247,655.5C 234.865,617.157 223.865,578.491 214,539.5C 205.116,501.839 199.616,463.672 197.5,425C 198.299,375.439 212.966,330.605 241.5,290.5C 241.312,292.103 241.812,293.437 243,294.5C 243.862,292.913 244.529,291.246 245,289.5C 245.54,292.523 247.04,294.856 249.5,296.5 Z"/></g>
<g><path style="opacity:1" fill="#0463cc" d="M 951.5,340.5 C 951.552,349.518 951.218,358.518 950.5,367.5C 948.786,375.443 946.453,383.109 943.5,390.5C 941.801,390.66 940.134,390.494 938.5,390C 935.829,386.768 933.662,383.268 932,379.5C 928.192,356.435 922.192,334.102 914,312.5C 909.542,305.347 905.375,298.014 901.5,290.5C 896.437,282.883 890.77,275.716 884.5,269C 884.905,268.055 885.572,267.388 886.5,267C 889.478,266.304 892.478,265.804 895.5,265.5C 900.541,265.162 904.874,263.495 908.5,260.5C 909.002,258.915 910.002,258.415 911.5,259C 933.563,281.959 946.897,309.125 951.5,340.5 Z"/></g>
<g><path style="opacity:1" fill="#031a3a" d="M 1085.5,327.5 C 1086.83,328.167 1088.17,328.833 1089.5,329.5C 1076.18,328.369 1062.85,328.369 1049.5,329.5C 1051.29,328.691 1053.29,328.191 1055.5,328C 1065.49,327.5 1075.49,327.334 1085.5,327.5 Z"/></g>
<g><path style="opacity:1" fill="#0f59b1" d="M 1093.5,295.5 C 1097.15,305.244 1100.49,315.244 1103.5,325.5C 1104.01,328.028 1104.68,330.528 1105.5,333C 1105.17,333.833 1104.83,334.667 1104.5,335.5C 1099.72,332.732 1094.72,330.732 1089.5,329.5C 1088.17,328.833 1086.83,328.167 1085.5,327.5C 1088.9,327.18 1092.23,327.513 1095.5,328.5C 1098.57,331.42 1100.9,330.92 1102.5,327C 1101,319.511 1098.5,312.345 1095,305.5C 1094.39,302.173 1093.89,298.839 1093.5,295.5 Z"/></g>
<g><path style="opacity:1" fill="#0393cc" d="M 1100.5,339.5 C 1117.99,357.654 1124.66,379.321 1120.5,404.5C 1102.14,385.992 1079.8,376.159 1053.5,375C 1034.57,373.419 1015.9,374.919 997.5,379.5C 997.114,370.317 996.447,361.15 995.5,352C 995.444,349.426 996.444,347.593 998.5,346.5C 1024.77,337.803 1051.77,332.97 1079.5,332C 1086.94,333.283 1093.94,335.783 1100.5,339.5 Z"/></g>
<g><path style="opacity:1" fill="#e4db27" d="M 931.5,392.5 C 930.85,392.196 930.183,391.863 929.5,391.5C 928.795,389.328 927.795,387.328 926.5,385.5C 926.003,387.216 925.669,388.883 925.5,390.5C 924.376,388.631 923.543,386.631 923,384.5C 924.314,381.667 924.647,377.333 924,371.5C 923.667,371.833 923.333,372.167 923,372.5C 922.667,368.5 922.333,364.5 922,360.5C 920.091,356.685 918.758,352.685 918,348.5C 917.581,347.328 916.915,346.328 916,345.5C 915.585,347.291 914.585,348.624 913,349.5C 912.688,352.309 913.188,354.976 914.5,357.5C 913.5,357.5 912.5,357.5 911.5,357.5C 912.513,362.193 912.513,366.86 911.5,371.5C 910.089,364.621 908.589,357.621 907,350.5C 898.433,321.373 886.599,293.707 871.5,267.5C 873.199,267.34 874.866,267.506 876.5,268C 878.549,270.593 880.715,273.093 883,275.5C 906.864,311.27 923.031,350.27 931.5,392.5 Z"/></g>
<g><path style="opacity:1" fill="#080a15" d="M 1103.5,325.5 C 1104.75,325.577 1105.58,326.244 1106,327.5C 1106.42,331.191 1106.92,334.858 1107.5,338.5C 1105.6,338.567 1103.77,338.233 1102,337.5C 1100.97,337.836 1100.47,338.503 1100.5,339.5C 1093.94,335.783 1086.94,333.283 1079.5,332C 1051.77,332.97 1024.77,337.803 998.5,346.5C 997.552,345.022 996.219,344.022 994.5,343.5C 1001.91,341.314 1009.24,338.814 1016.5,336C 1027.46,333.511 1038.46,331.344 1049.5,329.5C 1062.85,328.369 1076.18,328.369 1089.5,329.5C 1094.72,330.732 1099.72,332.732 1104.5,335.5C 1104.83,334.667 1105.17,333.833 1105.5,333C 1104.68,330.528 1104.01,328.028 1103.5,325.5 Z"/></g>
<g><path style="opacity:1" fill="#0d407b" d="M 817.5,338.5 C 823.047,350.86 826.714,363.86 828.5,377.5C 824.945,364.559 821.278,351.559 817.5,338.5 Z"/></g>
<g><path style="opacity:1" fill="#012049" d="M 951.5,340.5 C 952.165,343.649 952.498,346.982 952.5,350.5C 952.598,356.401 951.931,362.067 950.5,367.5C 951.218,358.518 951.552,349.518 951.5,340.5 Z"/></g>
<g><path style="opacity:1" fill="#8d8520" d="M 956.5,335.5 C 957.965,340.59 958.632,345.923 958.5,351.5C 958.632,357.077 957.965,362.41 956.5,367.5C 957.794,356.835 957.794,346.169 956.5,335.5 Z"/></g>
<g><path style="opacity:1" fill="#c8c237" d="M 980.5,328.5 C 990.554,352.933 994.22,378.266 991.5,404.5C 991.666,394.828 991.5,385.161 991,375.5C 990.333,374.833 989.667,374.167 989,373.5C 989.013,365.955 988.18,358.621 986.5,351.5C 985.5,351.5 984.5,351.5 983.5,351.5C 983.085,349.253 982.418,347.086 981.5,345C 981.667,344.167 981.833,343.333 982,342.5C 982.216,344.384 982.883,346.051 984,347.5C 984.167,346.667 984.333,345.833 984.5,345C 982.157,339.799 980.824,334.299 980.5,328.5 Z"/></g>
<g><path style="opacity:1" fill="#0363cd" d="M 1121.5,417.5 C 1121.36,421.375 1121.69,425.208 1122.5,429C 1120.8,433.683 1120.14,438.516 1120.5,443.5C 1119.66,459.416 1111.33,465.916 1095.5,463C 1091.5,461.667 1087.5,460.333 1083.5,459C 1074.38,452.367 1065.05,446.034 1055.5,440C 1046.51,435.679 1037.18,432.345 1027.5,430C 1024.52,429.502 1021.52,429.335 1018.5,429.5C 1017.74,428.732 1016.74,428.232 1015.5,428C 1008.84,427.5 1002.17,427.334 995.5,427.5C 995.5,423.5 995.5,419.5 995.5,415.5C 996.469,407.666 997.303,399.666 998,391.5C 998.153,388.849 998.987,386.516 1000.5,384.5C 1003.86,383.86 1007.2,383.026 1010.5,382C 1022.83,381.333 1035.17,381.333 1047.5,382C 1064.98,385.23 1082.31,389.23 1099.5,394C 1106.22,397.259 1112.05,401.759 1117,407.5C 1118.68,410.77 1120.18,414.103 1121.5,417.5 Z"/></g>
<g><path style="opacity:1" fill="#b7b143" d="M 454.5,392.5 C 456.304,391.838 458.304,391.505 460.5,391.5C 463.814,391.343 466.814,392.009 469.5,393.5C 464.537,392.746 459.537,392.413 454.5,392.5 Z"/></g>
<g><path style="opacity:1" fill="#bdba46" d="M 863.5,384.5 C 865.277,387.505 866.277,390.838 866.5,394.5C 865.883,394.389 865.383,394.056 865,393.5C 864.304,390.522 863.804,387.522 863.5,384.5 Z"/></g>
<g><path style="opacity:1" fill="#14110b" d="M 454.5,392.5 C 459.537,392.413 464.537,392.746 469.5,393.5C 482.457,398.611 492.957,406.945 501,418.5C 503.71,422.753 506.543,426.92 509.5,431C 509.167,431.167 508.833,431.333 508.5,431.5C 496.935,416.103 481.935,405.603 463.5,400C 455.447,399.434 447.447,399.434 439.5,400C 444.195,396.783 449.195,394.283 454.5,392.5 Z"/></g>
<g><path style="opacity:1" fill="#062c5c" d="M 1000.5,384.5 C 998.987,386.516 998.153,388.849 998,391.5C 997.303,399.666 996.469,407.666 995.5,415.5C 995.256,405.408 996.089,395.408 998,385.5C 998.671,384.748 999.504,384.414 1000.5,384.5 Z"/></g>
<g><path style="opacity:1" fill="#10417d" d="M 828.5,377.5 C 830.044,384.599 830.71,391.932 830.5,399.5C 830.499,405.011 830.166,410.344 829.5,415.5C 829.827,405.319 829.494,395.319 828.5,385.5C 828.5,382.833 828.5,380.167 828.5,377.5 Z"/></g>
<g><path style="opacity:1" fill="#0d0b07" d="M 463.5,430.5 C 461.696,429.838 459.696,429.505 457.5,429.5C 454.473,429.287 451.807,429.953 449.5,431.5C 438.044,434.446 428.878,440.779 422,450.5C 427.027,436.352 436.527,426.185 450.5,420C 456.917,419.13 463.251,419.464 469.5,421C 481.672,426.494 492.172,434.327 501,444.5C 510.109,455.61 518.443,467.277 526,479.5C 528.416,483.209 529.75,487.209 530,491.5C 518.116,469.61 501.949,451.444 481.5,437C 475.779,433.928 469.779,431.761 463.5,430.5 Z"/></g>
<g><path style="opacity:1" fill="#113c76" d="M 995.5,415.5 C 995.5,419.5 995.5,423.5 995.5,427.5C 1002.17,427.334 1008.84,427.5 1015.5,428C 1016.74,428.232 1017.74,428.732 1018.5,429.5C 1010.52,428.834 1002.52,428.501 994.5,428.5C 994.182,423.968 994.515,419.634 995.5,415.5 Z"/></g>
<g><path style="opacity:1" fill="#928c2c" d="M 463.5,430.5 C 458.797,430.437 454.13,430.771 449.5,431.5C 451.807,429.953 454.473,429.287 457.5,429.5C 459.696,429.505 461.696,429.838 463.5,430.5 Z"/></g>
<g><path style="opacity:1" fill="#0c468c" d="M 1121.5,417.5 C 1122.97,420.886 1123.64,424.553 1123.5,428.5C 1122.92,433.675 1121.92,438.675 1120.5,443.5C 1120.14,438.516 1120.8,433.683 1122.5,429C 1121.69,425.208 1121.36,421.375 1121.5,417.5 Z"/></g>
<g><path style="opacity:1" fill="#1254a0" d="M 828.5,385.5 C 829.494,395.319 829.827,405.319 829.5,415.5C 828.003,421.374 827.336,427.374 827.5,433.5C 828.626,449.998 828.626,466.331 827.5,482.5C 827.454,467.328 827.121,452.161 826.5,437C 828.092,419.907 828.758,402.741 828.5,385.5 Z"/></g>
<g><path style="opacity:1" fill="#100d07" d="M 218.5,449.5 C 214.222,457.877 212.222,466.877 212.5,476.5C 211.275,475.848 210.608,474.681 210.5,473C 210.083,470.502 209.749,468.002 209.5,465.5C 209.5,464.167 209.5,462.833 209.5,461.5C 210.768,459.095 211.435,456.428 211.5,453.5C 212.72,445.896 216.386,439.729 222.5,435C 225.217,432.924 228.217,432.257 231.5,433C 225.083,436.91 220.75,442.41 218.5,449.5 Z"/></g>
<g><path style="opacity:1" fill="#0d0a08" d="M 228.5,477.5 C 225.613,482.002 223.78,487.002 223,492.5C 221.77,499.445 221.27,506.445 221.5,513.5C 220.681,516.305 220.181,519.305 220,522.5C 219.667,522.167 219.333,521.833 219,521.5C 218.5,514.508 218.334,507.508 218.5,500.5C 218.472,495.138 218.806,489.805 219.5,484.5C 220.867,476.44 223.367,468.774 227,461.5C 232.331,454.415 239.164,452.582 247.5,456C 255.896,459.865 263.229,465.199 269.5,472C 265.454,470.408 261.454,468.408 257.5,466C 244.206,460.988 234.539,464.821 228.5,477.5 Z"/></g>
<g><path style="opacity:1" fill="#7d7730" d="M 211.5,453.5 C 211.435,456.428 210.768,459.095 209.5,461.5C 209.294,458.505 209.96,455.838 211.5,453.5 Z"/></g>
<g><path style="opacity:1" fill="#cec83b" d="M 218.5,449.5 C 217.989,452.693 217.322,455.859 216.5,459C 216.439,461.279 217.105,463.279 218.5,465C 218.37,466.059 217.87,466.892 217,467.5C 216.781,466.062 216.281,464.729 215.5,463.5C 214.146,469.911 213.146,476.245 212.5,482.5C 212.5,480.5 212.5,478.5 212.5,476.5C 212.222,466.877 214.222,457.877 218.5,449.5 Z"/></g>
<g><path style="opacity:1" fill="#8f882b" d="M 727.5,459.5 C 727.473,465.051 726.806,470.384 725.5,475.5C 725.376,469.931 726.043,464.598 727.5,459.5 Z"/></g>
<g><path style="opacity:1" fill="#a09a32" d="M 209.5,465.5 C 209.749,468.002 210.083,470.502 210.5,473C 210.608,474.681 211.275,475.848 212.5,476.5C 212.5,478.5 212.5,480.5 212.5,482.5C 212.552,484.903 212.219,487.236 211.5,489.5C 210.073,487.852 209.24,485.852 209,483.5C 208.367,477.839 207.867,472.172 207.5,466.5C 208.167,466.167 208.833,465.833 209.5,465.5 Z"/></g>
<g><path style="opacity:1" fill="#9c9b31" d="M 219.5,484.5 C 218.806,489.805 218.472,495.138 218.5,500.5C 218.167,500.5 217.833,500.5 217.5,500.5C 217.073,494.886 217.74,489.553 219.5,484.5 Z"/></g>
<g><path style="opacity:1" fill="#092b58" d="M 719.5,468.5 C 718.172,479.143 717.172,489.81 716.5,500.5C 715.349,495.35 715.183,490.016 716,484.5C 716.958,479.877 717.625,475.21 718,470.5C 718.278,469.584 718.778,468.918 719.5,468.5 Z"/></g>
<g><path style="opacity:1" fill="#d5ce39" d="M 228.5,477.5 C 227.096,485.252 225.262,492.919 223,500.5C 222.83,509.676 222.33,518.676 221.5,527.5C 221.5,522.833 221.5,518.167 221.5,513.5C 221.27,506.445 221.77,499.445 223,492.5C 223.78,487.002 225.613,482.002 228.5,477.5 Z"/></g>
<g><path style="opacity:1" fill="#252101" d="M 217.5,500.5 C 217.833,500.5 218.167,500.5 218.5,500.5C 218.334,507.508 218.5,514.508 219,521.5C 219.333,521.833 219.667,522.167 220,522.5C 220.181,519.305 220.681,516.305 221.5,513.5C 221.5,518.167 221.5,522.833 221.5,527.5C 219.864,526.251 218.697,524.584 218,522.5C 217.5,515.174 217.334,507.841 217.5,500.5 Z"/></g>
<g><path style="opacity:1" fill="#0f0d08" d="M 487.5,563.5 C 482.913,561.544 478.246,561.211 473.5,562.5C 467.803,563.454 462.303,565.121 457,567.5C 455.775,567.138 454.609,566.638 453.5,566C 473.684,550.419 492.184,552.252 509,571.5C 509.688,572.332 509.521,572.998 508.5,573.5C 501.875,569.166 494.875,565.832 487.5,563.5 Z"/></g>
<g><path style="opacity:1" fill="#959022" d="M 473.5,562.5 C 478.246,561.211 482.913,561.544 487.5,563.5C 482.848,563.002 478.181,562.669 473.5,562.5 Z"/></g>
<g><path style="opacity:1" fill="#080806" d="M 568.5,649.5 C 568.5,649.833 568.5,650.167 568.5,650.5C 538.841,657.858 512.675,671.524 490,691.5C 483.951,698.548 478.284,705.881 473,713.5C 472.359,707.556 473.192,701.889 475.5,696.5C 458.224,694.387 445.39,685.72 437,670.5C 425.191,644.728 424.524,618.728 435,592.5C 450.448,568.597 470.614,563.764 495.5,578C 510.683,590.862 519.183,607.362 521,627.5C 521.713,638.522 521.547,649.522 520.5,660.5C 536.292,655.885 552.292,652.218 568.5,649.5 Z"/></g>
<g><path style="opacity:1" fill="#f8f8f8" d="M 464.5,577.5 C 478.196,576.351 489.196,581.184 497.5,592C 479.059,591.776 466.559,600.276 460,617.5C 445.985,648.674 454.819,670.007 486.5,681.5C 487.057,683.718 487.057,686.051 486.5,688.5C 457.64,688.484 440.807,674.15 436,645.5C 432.026,626.372 435.36,608.705 446,592.5C 451.23,586.162 457.396,581.162 464.5,577.5 Z"/></g>
<g><path style="opacity:1" fill="#100d07" d="M 281.5,577.5 C 287.402,576.962 293.068,577.795 298.5,580C 305.1,583.605 311.434,587.605 317.5,592C 310.297,589.373 302.964,586.706 295.5,584C 286.851,582.158 280.184,584.991 275.5,592.5C 270.923,592.14 269.756,590.14 272,586.5C 275.062,583.268 278.229,580.268 281.5,577.5 Z"/></g>
<g><path style="opacity:1" fill="#0592ca" d="M 826.5,618.5 C 821.969,616.478 818.136,613.478 815,609.5C 814.233,605.406 814.566,601.406 816,597.5C 850.091,621.331 887.258,627.164 927.5,615C 941.76,609.093 955.76,602.926 969.5,596.5C 977.629,594.846 985.629,592.68 993.5,590C 1016.98,584.087 1040.64,583.087 1064.5,587C 1090.25,594.086 1104.42,610.919 1107,637.5C 1107.83,643.859 1107.66,650.193 1106.5,656.5C 1070.63,627.808 1029.63,615.641 983.5,620C 953.149,626.095 922.483,629.595 891.5,630.5C 874.589,630.803 857.922,628.969 841.5,625C 836.251,623.375 831.251,621.208 826.5,618.5 Z"/></g>
<g><path style="opacity:1" fill="#b9b442" d="M 235.5,587.5 C 238.078,591.337 239.412,595.67 239.5,600.5C 237.721,596.405 236.388,592.072 235.5,587.5 Z"/></g>
<g><path style="opacity:1" fill="#5a5712" d="M 744.5,599.5 C 743.833,599.5 743.5,599.833 743.5,600.5C 741.243,599.438 740.077,597.772 740,595.5C 741.667,596.733 743.167,598.067 744.5,599.5 Z"/></g>
<g><path style="opacity:1" fill="#0860c4" d="M 820.5,618.5 C 830.528,624.832 841.528,628.998 853.5,631C 854.056,631.383 854.389,631.883 854.5,632.5C 850.71,632.008 850.044,632.841 852.5,635C 855.102,636.14 857.769,636.973 860.5,637.5C 860.5,638.5 860.5,639.5 860.5,640.5C 855.825,638.438 850.991,636.438 846,634.5C 845.5,634.833 845,635.167 844.5,635.5C 845.5,636.167 846.5,636.833 847.5,637.5C 846.833,637.833 846.167,638.167 845.5,638.5C 843.05,636.85 840.383,635.683 837.5,635C 840.879,633.915 844.212,632.582 847.5,631C 844.482,630.501 841.482,630.668 838.5,631.5C 836.223,630.522 833.89,629.855 831.5,629.5C 830.583,632.418 828.583,634.418 825.5,635.5C 826.289,637.488 827.455,637.821 829,636.5C 829.483,637.448 829.649,638.448 829.5,639.5C 825.864,639.181 822.531,638.015 819.5,636C 818.833,635 818.167,634 817.5,633C 813.473,631.828 809.806,629.995 806.5,627.5C 808.557,623.933 811.223,620.766 814.5,618C 816.488,617.82 818.488,617.986 820.5,618.5 Z"/></g>
<g><path style="opacity:1" fill="#0363cd" d="M 854.5,632.5 C 873.454,634.76 892.454,635.093 911.5,633.5C 922.849,633.407 934.182,632.907 945.5,632C 948.379,631.454 951.046,630.621 953.5,629.5C 993.902,625.609 1033.24,630.109 1071.5,643C 1078.87,647.351 1086.21,651.684 1093.5,656C 1099.68,661.067 1105.34,666.567 1110.5,672.5C 1119.02,684.224 1124.69,697.224 1127.5,711.5C 1128.17,719.483 1128.5,727.483 1128.5,735.5C 1126.96,743.28 1122.96,749.28 1116.5,753.5C 1107.03,756.693 1097.37,757.36 1087.5,755.5C 1085.09,748.425 1081.42,742.092 1076.5,736.5C 1075.68,735.614 1074.68,735.281 1073.5,735.5C 1069.15,728.635 1063.81,722.468 1057.5,717C 1045.47,707.656 1032.64,699.489 1019,692.5C 1014.97,690.399 1010.8,688.732 1006.5,687.5C 998.675,682.925 990.342,679.425 981.5,677C 969.519,674.832 957.519,672.998 945.5,671.5C 939.198,671.41 933.198,670.41 927.5,668.5C 921.263,666.949 914.929,665.282 908.5,663.5C 909.376,662.749 910.376,662.249 911.5,662C 906.162,662.735 900.828,662.568 895.5,661.5C 872.215,657.85 850.215,650.516 829.5,639.5C 829.649,638.448 829.483,637.448 829,636.5C 827.455,637.821 826.289,637.488 825.5,635.5C 828.583,634.418 830.583,632.418 831.5,629.5C 833.89,629.855 836.223,630.522 838.5,631.5C 841.482,630.668 844.482,630.501 847.5,631C 844.212,632.582 840.879,633.915 837.5,635C 840.383,635.683 843.05,636.85 845.5,638.5C 846.167,638.167 846.833,637.833 847.5,637.5C 846.5,636.833 845.5,636.167 844.5,635.5C 845,635.167 845.5,634.833 846,634.5C 850.991,636.438 855.825,638.438 860.5,640.5C 860.5,639.5 860.5,638.5 860.5,637.5C 857.769,636.973 855.102,636.14 852.5,635C 850.044,632.841 850.71,632.008 854.5,632.5 Z"/></g>
<g><path style="opacity:1" fill="#090a0f" d="M 1065.5,782.5 C 1065.38,781.414 1064.71,780.747 1063.5,780.5C 1059.68,782.145 1055.68,782.811 1051.5,782.5C 1062.07,780.808 1070.9,775.808 1078,767.5C 1081.1,761.847 1082.1,755.847 1081,749.5C 1078.74,744.652 1076.24,739.985 1073.5,735.5C 1074.68,735.281 1075.68,735.614 1076.5,736.5C 1081.42,742.092 1085.09,748.425 1087.5,755.5C 1094.25,757.444 1101.25,757.944 1108.5,757C 1111.67,756.678 1114.33,755.511 1116.5,753.5C 1122.96,749.28 1126.96,743.28 1128.5,735.5C 1129.17,732.351 1129.5,729.018 1129.5,725.5C 1129.7,720.563 1129.03,715.896 1127.5,711.5C 1124.69,697.224 1119.02,684.224 1110.5,672.5C 1105.34,666.567 1099.68,661.067 1093.5,656C 1086.21,651.684 1078.87,647.351 1071.5,643C 1033.24,630.109 993.902,625.609 953.5,629.5C 939.281,630.084 925.281,631.417 911.5,633.5C 892.454,635.093 873.454,634.76 854.5,632.5C 854.389,631.883 854.056,631.383 853.5,631C 841.528,628.998 830.528,624.832 820.5,618.5C 822.258,618.877 823.925,619.544 825.5,620.5C 826.298,620.043 826.631,619.376 826.5,618.5C 831.251,621.208 836.251,623.375 841.5,625C 857.922,628.969 874.589,630.803 891.5,630.5C 922.483,629.595 953.149,626.095 983.5,620C 1029.63,615.641 1070.63,627.808 1106.5,656.5C 1107.66,650.193 1107.83,643.859 1107,637.5C 1104.42,610.919 1090.25,594.086 1064.5,587C 1040.64,583.087 1016.98,584.087 993.5,590C 985.629,592.68 977.629,594.846 969.5,596.5C 969.082,595.778 968.416,595.278 967.5,595C 967.833,594.667 968.167,594.333 968.5,594C 965.806,594.612 963.14,594.445 960.5,593.5C 977.469,588.385 994.802,584.218 1012.5,581C 1025.42,578.8 1038.42,578.134 1051.5,579C 1070.22,579.944 1085.72,587.444 1098,601.5C 1110.65,619.77 1116.32,640.103 1115,662.5C 1117.24,664.647 1119.24,666.98 1121,669.5C 1134.05,691.773 1138.71,715.773 1135,741.5C 1133.11,748.386 1129.27,753.886 1123.5,758C 1111.23,764.054 1098.23,767.054 1084.5,767C 1079.16,773.515 1072.83,778.682 1065.5,782.5 Z"/></g>
<g><path style="opacity:1" fill="#0f4a92" d="M 953.5,629.5 C 951.046,630.621 948.379,631.454 945.5,632C 934.182,632.907 922.849,633.407 911.5,633.5C 925.281,631.417 939.281,630.084 953.5,629.5 Z"/></g>
<g><path style="opacity:1" fill="#e8e8e8" d="M 478.5,634.5 C 484.623,636.581 486.956,640.748 485.5,647C 480.655,648.163 476.821,646.663 474,642.5C 473.675,638.817 475.175,636.15 478.5,634.5 Z"/></g>
<g><path style="opacity:1" fill="#847b08" d="M 568.5,650.5 C 568.5,650.167 568.5,649.833 568.5,649.5C 570.608,648.225 572.942,647.725 575.5,648C 573.355,649.289 571.022,650.122 568.5,650.5 Z"/></g>
<g><path style="opacity:1" fill="#7dae7a" d="M 487.5,598.5 C 492.846,597.854 497.846,598.688 502.5,601C 508.141,604.804 511.307,609.97 512,616.5C 491.092,604.697 477.092,610.364 470,633.5C 469.521,648.384 476.021,658.884 489.5,665C 494.375,666.636 499.375,667.469 504.5,667.5C 504.5,668.833 504.5,670.167 504.5,671.5C 498.912,673.253 493.245,674.587 487.5,675.5C 478.134,674.897 470.968,670.563 466,662.5C 453.113,634.326 460.28,612.993 487.5,598.5 Z"/></g>
<g><path style="opacity:1" fill="#8c8830" d="M 345.5,652.5 C 347.04,654.838 347.706,657.505 347.5,660.5C 346.232,658.095 345.565,655.428 345.5,652.5 Z"/></g>
<g><path style="opacity:1" fill="#08090d" d="M 209.5,688.5 C 208.163,689.315 207.163,690.482 206.5,692C 208.119,692.236 209.119,693.069 209.5,694.5C 197.49,690.776 186.157,685.61 175.5,679C 170.403,676.615 165.069,675.115 159.5,674.5C 155.18,673.834 150.68,673.501 146,673.5C 139.586,673.289 133.419,673.955 127.5,675.5C 95.5736,680.305 66.9069,692.472 41.5,712C 30.7699,720.987 22.6032,731.821 17,744.5C 15.4772,752.102 15.1439,759.768 16,767.5C 16.5431,769.631 17.3764,771.631 18.5,773.5C 39.7049,753.229 63.3716,736.395 89.5,723C 131.572,704.9 174.905,700.9 219.5,711C 226.195,711.665 232.862,711.498 239.5,710.5C 233.916,712.295 227.916,713.129 221.5,713C 222.416,713.278 223.082,713.778 223.5,714.5C 202.228,712.473 180.895,711.973 159.5,713C 153.919,713.15 148.586,713.983 143.5,715.5C 93.2434,720.486 52.0768,742.153 20,780.5C 14.5076,793.478 10.1742,806.811 7,820.5C 5.41096,829.513 6.57763,838.013 10.5,846C 12.7388,848.955 15.7388,850.621 19.5,851C 29.6115,853.612 38.1115,851.112 45,843.5C 46.7615,838.964 49.2615,834.964 52.5,831.5C 53.8333,831.5 55.1667,831.5 56.5,831.5C 56.5,832.833 56.5,834.167 56.5,835.5C 55.4161,841.07 57.0827,845.57 61.5,849C 73.336,849.946 84.6693,847.946 95.5,843C 106.028,822.158 118.528,802.658 133,784.5C 142.364,774.456 152.864,765.956 164.5,759C 168.009,757.241 171.675,756.074 175.5,755.5C 175.904,756.756 176.571,757.923 177.5,759C 174.496,762.882 175.163,764.049 179.5,762.5C 161.474,771.793 145.64,784.126 132,799.5C 128.667,804.833 125.333,810.167 122,815.5C 119.335,828.669 113.168,839.836 103.5,849C 95.2268,854.646 86.0601,857.479 76,857.5C 59.0936,856.118 42.2603,856.285 25.5,858C 27.5951,857.444 27.7618,856.944 26,856.5C 11.276,859.934 2.44267,854.267 -0.5,839.5C -0.5,833.833 -0.5,828.167 -0.5,822.5C 3.31672,808.2 7.48339,793.867 12,779.5C 11.258,770.549 10.4247,761.549 9.5,752.5C 9.39309,741.375 12.2264,731.041 18,721.5C 29.9186,703.922 45.752,691.089 65.5,683C 84.4178,675.916 103.751,670.25 123.5,666C 154.711,664.245 183.377,671.745 209.5,688.5 Z"/></g>
<g><path style="opacity:1" fill="#0e4b90" d="M 895.5,661.5 C 900.828,662.568 906.162,662.735 911.5,662C 910.376,662.249 909.376,662.749 908.5,663.5C 914.929,665.282 921.263,666.949 927.5,668.5C 916.275,668.081 905.609,665.747 895.5,661.5 Z"/></g>
<g><path style="opacity:1" fill="#0c5275" d="M 159.5,674.5 C 148.815,674.39 138.148,674.723 127.5,675.5C 133.419,673.955 139.586,673.289 146,673.5C 150.68,673.501 155.18,673.834 159.5,674.5 Z"/></g>
<g><path style="opacity:1" fill="#4c4b06" d="M 347.5,665.5 C 347.85,672.395 348.85,679.062 350.5,685.5C 349.791,686.404 348.791,686.737 347.5,686.5C 347.5,679.5 347.5,672.5 347.5,665.5 Z"/></g>
<g><path style="opacity:1" fill="#d3ce37" d="M 411.5,675.5 C 412.376,675.369 413.043,675.702 413.5,676.5C 412.624,677.251 411.624,677.751 410.5,678C 401.438,678.295 392.438,679.129 383.5,680.5C 386.842,678.665 390.509,677.498 394.5,677C 400.348,676.827 406.015,676.327 411.5,675.5 Z"/></g>
<g><path style="opacity:1" fill="#0e4e9a" d="M 945.5,671.5 C 957.519,672.998 969.519,674.832 981.5,677C 990.342,679.425 998.675,682.925 1006.5,687.5C 997.229,684.025 987.896,680.859 978.5,678C 967.234,676.234 956.234,674.067 945.5,671.5 Z"/></g>
<g><path style="opacity:1" fill="#0393cd" d="M 777.5,627.5 C 785.892,627.71 794.225,628.543 802.5,630C 808.673,635.919 815.673,640.586 823.5,644C 856.119,657.595 889.786,667.928 924.5,675C 934.13,676.12 943.796,676.786 953.5,677C 990.42,684.882 1024.42,699.382 1055.5,720.5C 1061.59,725.606 1067.59,730.606 1073.5,735.5C 1076.24,739.985 1078.74,744.652 1081,749.5C 1082.1,755.847 1081.1,761.847 1078,767.5C 1070.9,775.808 1062.07,780.808 1051.5,782.5C 1017.59,784.929 989.421,773.596 967,748.5C 957.797,731.911 945.297,718.411 929.5,708C 926.326,706.275 922.993,704.942 919.5,704C 872.972,698.228 831.972,680.228 796.5,650C 788.844,643.457 782.51,635.957 777.5,627.5 Z"/></g>
<g><path style="opacity:1" fill="#070912" d="M 806.5,627.5 C 809.806,629.995 813.473,631.828 817.5,633C 818.167,634 818.833,635 819.5,636C 822.531,638.015 825.864,639.181 829.5,639.5C 850.215,650.516 872.215,657.85 895.5,661.5C 905.609,665.747 916.275,668.081 927.5,668.5C 933.198,670.41 939.198,671.41 945.5,671.5C 956.234,674.067 967.234,676.234 978.5,678C 987.896,680.859 997.229,684.025 1006.5,687.5C 1010.8,688.732 1014.97,690.399 1019,692.5C 1032.64,699.489 1045.47,707.656 1057.5,717C 1063.81,722.468 1069.15,728.635 1073.5,735.5C 1067.59,730.606 1061.59,725.606 1055.5,720.5C 1024.42,699.382 990.42,684.882 953.5,677C 943.796,676.786 934.13,676.12 924.5,675C 889.786,667.928 856.119,657.595 823.5,644C 815.673,640.586 808.673,635.919 802.5,630C 794.225,628.543 785.892,627.71 777.5,627.5C 782.512,626.271 787.679,626.271 793,627.5C 795.527,627.33 796.027,626.33 794.5,624.5C 795.325,623.614 796.325,623.281 797.5,623.5C 797.38,626.205 798.38,626.872 800.5,625.5C 801.524,626.853 802.857,627.52 804.5,627.5C 804.5,626.5 804.5,625.5 804.5,624.5C 800.828,623.955 801.162,623.622 805.5,623.5C 805.232,625.099 805.566,626.432 806.5,627.5 Z"/></g>
<g><path style="opacity:1" fill="#0593cb" d="M 159.5,674.5 C 165.069,675.115 170.403,676.615 175.5,679C 186.157,685.61 197.49,690.776 209.5,694.5C 222.848,698.876 236.514,700.21 250.5,698.5C 250.509,700.308 250.009,701.975 249,703.5C 246.112,706.282 242.945,708.616 239.5,710.5C 232.862,711.498 226.195,711.665 219.5,711C 174.905,700.9 131.572,704.9 89.5,723C 63.3716,736.395 39.7049,753.229 18.5,773.5C 17.3764,771.631 16.5431,769.631 16,767.5C 15.1439,759.768 15.4772,752.102 17,744.5C 22.6032,731.821 30.7699,720.987 41.5,712C 66.9069,692.472 95.5736,680.305 127.5,675.5C 138.148,674.723 148.815,674.39 159.5,674.5 Z"/></g>
<g><path style="opacity:1" fill="#12539f" d="M 223.5,714.5 C 227.798,715.2 232.131,715.533 236.5,715.5C 236.768,717.099 236.434,718.432 235.5,719.5C 235.5,718.5 235.5,717.5 235.5,716.5C 204.863,714.257 174.196,713.923 143.5,715.5C 148.586,713.983 153.919,713.15 159.5,713C 180.895,711.973 202.228,712.473 223.5,714.5 Z"/></g>
<g><path style="opacity:1" fill="#052f66" d="M 1127.5,711.5 C 1129.03,715.896 1129.7,720.563 1129.5,725.5C 1129.5,729.018 1129.17,732.351 1128.5,735.5C 1128.5,727.483 1128.17,719.483 1127.5,711.5 Z"/></g>
<g><path style="opacity:1" fill="#0463cc" d="M 235.5,719.5 C 232.357,719.969 230.023,721.636 228.5,724.5C 227.469,725.355 226.303,726.022 225,726.5C 219.882,725.464 214.715,724.798 209.5,724.5C 205.347,723.834 201.013,723.501 196.5,723.5C 189.276,723.372 182.276,724.039 175.5,725.5C 168.646,725.505 161.979,726.671 155.5,729C 106.664,748.431 72.3305,782.598 52.5,831.5C 49.2615,834.964 46.7615,838.964 45,843.5C 38.1115,851.112 29.6115,853.612 19.5,851C 15.7388,850.621 12.7388,848.955 10.5,846C 6.57763,838.013 5.41096,829.513 7,820.5C 10.1742,806.811 14.5076,793.478 20,780.5C 52.0768,742.153 93.2434,720.486 143.5,715.5C 174.196,713.923 204.863,714.257 235.5,716.5C 235.5,717.5 235.5,718.5 235.5,719.5 Z"/></g>
<g><path style="opacity:1" fill="#041533" d="M 209.5,724.5 C 198.15,724.407 186.817,724.741 175.5,725.5C 182.276,724.039 189.276,723.372 196.5,723.5C 201.013,723.501 205.347,723.834 209.5,724.5 Z"/></g>
<g><path style="opacity:1" fill="#070911" d="M 209.5,724.5 C 214.715,724.798 219.882,725.464 225,726.5C 226.303,726.022 227.469,725.355 228.5,724.5C 228.586,725.496 228.252,726.329 227.5,727C 223.169,726.859 222.502,728.192 225.5,731C 223.893,732.049 223.227,733.549 223.5,735.5C 215.798,743.2 208.465,751.2 201.5,759.5C 200.504,759.414 199.671,759.748 199,760.5C 198.705,758.069 197.538,756.236 195.5,755C 188.811,754.391 182.144,754.557 175.5,755.5C 175.918,754.778 176.584,754.278 177.5,754C 184.5,753.667 191.5,753.333 198.5,753C 206.397,746.224 214.064,739.224 221.5,732C 185.546,725.87 152.546,733.203 122.5,754C 93.9667,776.017 71.9667,803.184 56.5,835.5C 56.5,834.167 56.5,832.833 56.5,831.5C 55.1667,831.5 53.8333,831.5 52.5,831.5C 72.3305,782.598 106.664,748.431 155.5,729C 161.979,726.671 168.646,725.505 175.5,725.5C 186.817,724.741 198.15,724.407 209.5,724.5 Z"/></g>
<g><path style="opacity:1" fill="#908921" d="M 248.5,735.5 C 247.637,741.455 247.303,747.455 247.5,753.5C 246.349,748.35 246.183,743.016 247,737.5C 247.278,736.584 247.778,735.918 248.5,735.5 Z"/></g>
<g><path style="opacity:1" fill="#787243" d="M 594.5,752.5 C 585.482,752.448 576.482,752.782 567.5,753.5C 572.401,751.948 577.568,751.281 583,751.5C 587.015,751.501 590.849,751.835 594.5,752.5 Z"/></g>
<g><path style="opacity:1" fill="#072651" d="M 1116.5,753.5 C 1114.33,755.511 1111.67,756.678 1108.5,757C 1101.25,757.944 1094.25,757.444 1087.5,755.5C 1097.37,757.36 1107.03,756.693 1116.5,753.5 Z"/></g>
<g><path style="opacity:1" fill="#fefefe" d="M 511.5,996.5 C 340.833,996.5 170.167,996.5 -0.5,996.5C -0.5,944.167 -0.5,891.833 -0.5,839.5C 2.44267,854.267 11.276,859.934 26,856.5C 27.7618,856.944 27.5951,857.444 25.5,858C 42.2603,856.285 59.0936,856.118 76,857.5C 86.0601,857.479 95.2268,854.646 103.5,849C 113.168,839.836 119.335,828.669 122,815.5C 125.333,810.167 128.667,804.833 132,799.5C 145.64,784.126 161.474,771.793 179.5,762.5C 182.691,761.104 186.024,760.104 189.5,759.5C 190.5,759.833 191.5,760.167 192.5,760.5C 183.713,768.725 176.879,778.392 172,789.5C 169.131,799.753 168.797,810.086 171,820.5C 192.057,863.557 223.891,896.057 266.5,918C 326.404,946.772 389.737,961.438 456.5,962C 470.474,980.643 488.807,992.143 511.5,996.5 Z"/></g>
<g><path style="opacity:1" fill="#0493cc" d="M 175.5,755.5 C 171.675,756.074 168.009,757.241 164.5,759C 152.864,765.956 142.364,774.456 133,784.5C 118.528,802.658 106.028,822.158 95.5,843C 84.6693,847.946 73.336,849.946 61.5,849C 57.0827,845.57 55.4161,841.07 56.5,835.5C 71.9667,803.184 93.9667,776.017 122.5,754C 152.546,733.203 185.546,725.87 221.5,732C 214.064,739.224 206.397,746.224 198.5,753C 191.5,753.333 184.5,753.667 177.5,754C 176.584,754.278 175.918,754.778 175.5,755.5 Z"/></g>
<g><path style="opacity:1" fill="#090808" d="M 988.5,432.5 C 988.698,434.575 988.865,436.575 989,438.5C 987.255,439.956 985.422,441.289 983.5,442.5C 984.325,443.386 985.325,443.719 986.5,443.5C 986.285,445.179 986.952,446.179 988.5,446.5C 972.935,463.607 961.435,483.274 954,505.5C 943.707,537.208 934.54,569.208 926.5,601.5C 937.649,598.213 948.983,595.547 960.5,593.5C 963.14,594.445 965.806,594.612 968.5,594C 968.167,594.333 967.833,594.667 967.5,595C 968.416,595.278 969.082,595.778 969.5,596.5C 955.76,602.926 941.76,609.093 927.5,615C 887.258,627.164 850.091,621.331 816,597.5C 814.566,601.406 814.233,605.406 815,609.5C 818.136,613.478 821.969,616.478 826.5,618.5C 826.631,619.376 826.298,620.043 825.5,620.5C 823.925,619.544 822.258,618.877 820.5,618.5C 818.488,617.986 816.488,617.82 814.5,618C 811.223,620.766 808.557,623.933 806.5,627.5C 805.566,626.432 805.232,625.099 805.5,623.5C 801.162,623.622 800.828,623.955 804.5,624.5C 804.5,625.5 804.5,626.5 804.5,627.5C 802.857,627.52 801.524,626.853 800.5,625.5C 798.38,626.872 797.38,626.205 797.5,623.5C 796.325,623.281 795.325,623.614 794.5,624.5C 796.027,626.33 795.527,627.33 793,627.5C 787.679,626.271 782.512,626.271 777.5,627.5C 782.51,635.957 788.844,643.457 796.5,650C 831.972,680.228 872.972,698.228 919.5,704C 922.993,704.942 926.326,706.275 929.5,708C 945.297,718.411 957.797,731.911 967,748.5C 989.421,773.596 1017.59,784.929 1051.5,782.5C 1055.68,782.811 1059.68,782.145 1063.5,780.5C 1064.71,780.747 1065.38,781.414 1065.5,782.5C 1059.15,786.008 1052.48,788.842 1045.5,791C 1032.64,795.752 1019.97,795.418 1007.5,790C 982.555,776.89 962.555,758.39 947.5,734.5C 942.975,730.808 938.308,727.308 933.5,724C 918.002,713.568 901.002,708.401 882.5,708.5C 859.206,759.78 827.54,805.113 787.5,844.5C 733.088,898.042 668.088,931.542 592.5,945C 576.452,975.858 551.119,993.025 516.5,996.5C 514.833,996.5 513.167,996.5 511.5,996.5C 488.807,992.143 470.474,980.643 456.5,962C 389.737,961.438 326.404,946.772 266.5,918C 223.891,896.057 192.057,863.557 171,820.5C 168.797,810.086 169.131,799.753 172,789.5C 176.879,778.392 183.713,768.725 192.5,760.5C 191.5,760.167 190.5,759.833 189.5,759.5C 186.024,760.104 182.691,761.104 179.5,762.5C 175.163,764.049 174.496,762.882 177.5,759C 176.571,757.923 175.904,756.756 175.5,755.5C 182.144,754.557 188.811,754.391 195.5,755C 197.538,756.236 198.705,758.069 199,760.5C 199.671,759.748 200.504,759.414 201.5,759.5C 196.429,766.633 191.595,773.967 187,781.5C 179.804,793.891 176.804,807.224 178,821.5C 180.612,829.391 184.279,836.724 189,843.5C 196.431,852.934 204.598,861.768 213.5,870C 279.709,921.912 355.042,950.079 439.5,954.5C 443.351,955.809 447.351,955.809 451.5,954.5C 451.376,953.893 451.043,953.56 450.5,953.5C 445.415,945.487 439.082,938.653 431.5,933C 430.207,932.51 428.873,932.343 427.5,932.5C 425.167,931.833 422.833,931.167 420.5,930.5C 421.496,929.335 422.829,928.668 424.5,928.5C 434.933,932.479 443.766,938.812 451,947.5C 461.228,965.013 476.062,976.346 495.5,981.5C 508.646,986.611 521.979,986.778 535.5,982C 536.056,981.617 536.389,981.117 536.5,980.5C 560.798,972.7 575.965,956.366 582,931.5C 585.919,925.33 589.586,918.997 593,912.5C 599.677,900.822 608.177,890.655 618.5,882C 619.332,881.312 619.998,881.479 620.5,882.5C 611.026,898.582 602.693,915.249 595.5,932.5C 596.167,932.833 596.833,933.167 597.5,933.5C 628.291,924.106 657.957,911.939 686.5,897C 768.103,853.064 830.603,790.231 874,708.5C 874.684,707.216 874.517,706.049 873.5,705C 867.274,702.888 861.274,700.222 855.5,697C 812.364,671.594 775.03,639.427 743.5,600.5C 743.5,599.833 743.833,599.5 744.5,599.5C 754.902,606.369 765.902,612.202 777.5,617C 785.909,620.161 794.576,621.161 803.5,620C 809.362,609.225 810.029,598.058 805.5,586.5C 805.833,586.167 806.167,585.833 806.5,585.5C 821.033,594.433 836.366,601.766 852.5,607.5C 866.345,613.405 880.678,615.405 895.5,613.5C 901.202,612.488 906.535,610.488 911.5,607.5C 922.041,565.001 935.208,523.334 951,482.5C 954.257,476.319 957.257,469.985 960,463.5C 964,457.5 968,451.5 972,445.5C 977.008,440.282 982.508,435.948 988.5,432.5 Z"/></g>
<g><path style="opacity:1" fill="#c8c240" d="M 852.5,607.5 C 859.487,608.99 866.487,610.49 873.5,612C 880.792,613.116 888.126,613.616 895.5,613.5C 880.678,615.405 866.345,613.405 852.5,607.5 Z"/></g>
<g><path style="opacity:1" fill="#b5b032" d="M 548.5,812.5 C 548.09,820.771 546.756,828.771 544.5,836.5C 544.958,828.232 546.291,820.232 548.5,812.5 Z"/></g>
<g><path style="opacity:1" fill="#0a0605" d="M 345.5,652.5 C 345.565,655.428 346.232,658.095 347.5,660.5C 347.5,662.167 347.5,663.833 347.5,665.5C 347.5,672.5 347.5,679.5 347.5,686.5C 348.791,686.737 349.791,686.404 350.5,685.5C 369.287,672.72 389.62,669.386 411.5,675.5C 406.015,676.327 400.348,676.827 394.5,677C 390.509,677.498 386.842,678.665 383.5,680.5C 377.158,682.171 371.158,684.671 365.5,688C 364.167,688.667 364.167,689.333 365.5,690C 383.889,695.351 401.889,701.684 419.5,709C 421.792,710.29 423.792,711.957 425.5,714C 420.792,714.496 416.125,714.162 411.5,713C 392.553,707.547 373.219,704.047 353.5,702.5C 345.559,700.965 337.392,700.298 329,700.5C 323.167,700.667 317.333,700.833 311.5,701C 307.233,701.189 303.233,702.023 299.5,703.5C 276.262,705.917 261.429,718.25 255,740.5C 259.637,781.497 280.47,811.33 317.5,830C 325.883,833.739 334.549,836.572 343.5,838.5C 352.797,841.546 362.464,843.213 372.5,843.5C 426.655,849.286 472.155,832.286 509,792.5C 515.788,784.577 521.288,775.911 525.5,766.5C 507.919,765.702 492.752,759.369 480,747.5C 478.813,745.956 478.48,744.289 479,742.5C 485.796,749.157 493.962,752.823 503.5,753.5C 511.221,755.632 519.221,756.632 527.5,756.5C 536.195,756.673 544.862,756.34 553.5,755.5C 555.92,755.292 558.253,755.626 560.5,756.5C 561.696,756.154 561.696,755.654 560.5,755C 562.058,754.79 563.391,754.29 564.5,753.5C 565.5,753.5 566.5,753.5 567.5,753.5C 576.482,752.782 585.482,752.448 594.5,752.5C 600.904,752.8 606.571,754.967 611.5,759C 605.417,758.152 599.251,757.652 593,757.5C 585.593,757.318 578.427,758.484 571.5,761C 559.373,776.095 551.706,793.262 548.5,812.5C 546.291,820.232 544.958,828.232 544.5,836.5C 544.979,859.142 542.813,881.475 538,903.5C 534.443,916.456 527.943,927.623 518.5,937C 503.911,945.632 489.244,945.632 474.5,937C 468.658,933.246 462.991,929.246 457.5,925C 442.862,911.363 428.529,897.363 414.5,883C 405.294,873.791 394.961,866.125 383.5,860C 374.848,858.274 366.182,856.607 357.5,855C 324.51,845.755 296.01,828.922 272,804.5C 259.085,789.76 250.919,772.76 247.5,753.5C 247.303,747.455 247.637,741.455 248.5,735.5C 252.92,721.572 261.587,711.072 274.5,704C 281.619,700.407 288.953,697.407 296.5,695C 280.638,678.446 270.138,658.946 265,636.5C 264.333,630.5 264.333,624.5 265,618.5C 265.892,615.716 267.058,613.05 268.5,610.5C 266.074,605.695 267.074,601.529 271.5,598C 278.925,593.763 286.925,592.43 295.5,594C 322.466,604.792 339.132,624.292 345.5,652.5 Z"/></g>
<g><path style="opacity:1" fill="#8b1927" d="M 495.5,815.5 C 493.567,817.273 492.234,819.439 491.5,822C 487.618,824.72 483.618,827.22 479.5,829.5C 484.557,824.438 489.89,819.772 495.5,815.5 Z"/></g>
<g><path style="opacity:1" fill="#781726" d="M 504.5,805.5 C 502.5,809.5 499.5,812.5 495.5,814.5C 498.167,811.167 501.167,808.167 504.5,805.5 Z"/></g>
<g><path style="opacity:1" fill="#c1162c" d="M 552.5,765.5 C 548.451,772.362 545.618,779.695 544,787.5C 540.686,804.008 539.186,820.675 539.5,837.5C 533.389,836.838 527.722,838.005 522.5,841C 519.299,844.536 515.799,847.703 512,850.5C 509.749,854.425 507.083,858.092 504,861.5C 503.51,862.793 503.343,864.127 503.5,865.5C 494.059,866.222 486.726,870.555 481.5,878.5C 474.124,879.149 468.124,876.483 463.5,870.5C 461.452,867.785 459.118,865.452 456.5,863.5C 454.944,860.726 453.111,858.059 451,855.5C 450.316,854.216 450.483,853.049 451.5,852C 450.428,850.716 449.095,850.383 447.5,851C 446.707,849.915 446.04,848.748 445.5,847.5C 448.369,846.599 451.202,845.599 454,844.5C 455.984,844.741 457.817,845.408 459.5,846.5C 459.833,846.167 460.167,845.833 460.5,845.5C 459.5,844.833 458.5,844.167 457.5,843.5C 458.77,842.712 459.77,841.712 460.5,840.5C 461.873,840.657 463.207,840.49 464.5,840C 468.261,837.586 472.261,835.586 476.5,834C 477.386,832.385 478.386,830.885 479.5,829.5C 483.618,827.22 487.618,824.72 491.5,822C 492.234,819.439 493.567,817.273 495.5,815.5C 495.5,815.167 495.5,814.833 495.5,814.5C 499.5,812.5 502.5,809.5 504.5,805.5C 508.53,800.476 512.53,795.476 516.5,790.5C 518.551,788.138 520.884,786.971 523.5,787C 522.131,784.761 522.631,782.927 525,781.5C 525.49,780.207 525.657,778.873 525.5,777.5C 526.822,777.67 527.989,777.337 529,776.5C 530.149,773.607 530.649,770.607 530.5,767.5C 530.833,767.5 531.167,767.5 531.5,767.5C 532.479,766.235 533.479,764.901 534.5,763.5C 536,763.167 537.5,762.833 539,762.5C 543.976,762.525 548.476,763.525 552.5,765.5 Z"/></g>
<g><path style="opacity:1" fill="#9d1a2b" d="M 530.5,767.5 C 530.649,770.607 530.149,773.607 529,776.5C 527.989,777.337 526.822,777.67 525.5,777.5C 525.657,778.873 525.49,780.207 525,781.5C 522.631,782.927 522.131,784.761 523.5,787C 520.884,786.971 518.551,788.138 516.5,790.5C 521.238,782.788 525.904,775.121 530.5,767.5 Z"/></g>
<g><path style="opacity:1" fill="#561319" d="M 552.5,765.5 C 548.476,763.525 543.976,762.525 539,762.5C 537.5,762.833 536,763.167 534.5,763.5C 533.479,764.901 532.479,766.235 531.5,767.5C 532.076,762.658 534.909,760.658 540,761.5C 544.911,761.635 549.744,762.301 554.5,763.5C 554.145,764.522 553.478,765.189 552.5,765.5 Z"/></g>
<g><path style="opacity:1" fill="#363412" d="M 564.5,753.5 C 563.391,754.29 562.058,754.79 560.5,755C 561.696,755.654 561.696,756.154 560.5,756.5C 558.253,755.626 555.92,755.292 553.5,755.5C 556.946,754.313 560.613,753.646 564.5,753.5 Z"/></g>
<g><path style="opacity:1" fill="#c4bc43" d="M 503.5,753.5 C 510.5,753.923 517.5,754.423 524.5,755C 525.737,755.232 526.737,755.732 527.5,756.5C 519.221,756.632 511.221,755.632 503.5,753.5 Z"/></g>
<g><path style="opacity:1" fill="#c7c043" d="M 353.5,702.5 C 335.483,702.283 317.483,702.616 299.5,703.5C 303.233,702.023 307.233,701.189 311.5,701C 317.333,700.833 323.167,700.667 329,700.5C 337.392,700.298 345.559,700.965 353.5,702.5 Z"/></g>
<g><path style="opacity:1" fill="#3d5241" d="M 341.5,689.5 C 342.404,690.209 342.737,691.209 342.5,692.5C 335.646,692.824 328.979,692.491 322.5,691.5C 329.255,692.123 335.588,691.456 341.5,689.5 Z"/></g>
<g><path style="opacity:1" fill="#eeeeee" d="M 315.5,652.5 C 320.899,652.564 324.232,655.23 325.5,660.5C 324.944,664.2 322.778,665.867 319,665.5C 316.966,665.646 315.299,664.98 314,663.5C 313.013,659.525 313.513,655.859 315.5,652.5 Z"/></g>
<g><path style="opacity:1" fill="#7ead7a" d="M 341.5,689.5 C 335.588,691.456 329.255,692.123 322.5,691.5C 310.881,678.938 302.881,664.272 298.5,647.5C 300.837,634.657 308.337,626.323 321,622.5C 323.631,623.963 325.798,625.963 327.5,628.5C 311.503,632.123 305.337,642.123 309,658.5C 314.129,673.626 324.462,683.293 340,687.5C 341.03,687.836 341.53,688.503 341.5,689.5 Z"/></g>
<g><path style="opacity:1" fill="#f8f8f8" d="M 282.5,600.5 C 296.353,600.76 308.019,605.927 317.5,616C 295.533,623.101 288.366,637.601 296,659.5C 300.371,671.247 306.538,681.914 314.5,691.5C 309.5,692.833 304.5,692.833 299.5,691.5C 289.091,675.349 280.257,658.349 273,640.5C 271,631.167 271,621.833 273,612.5C 274.526,607.072 277.693,603.072 282.5,600.5 Z"/></g>
<g><path style="opacity:1" fill="#8d1a2b" d="M 479.5,829.5 C 478.386,830.885 477.386,832.385 476.5,834C 472.261,835.586 468.261,837.586 464.5,840C 463.207,840.49 461.873,840.657 460.5,840.5C 466.63,836.598 472.963,832.931 479.5,829.5 Z"/></g>
<g><path style="opacity:1" fill="#b0a931" d="M 343.5,838.5 C 353.388,839.593 363.054,841.259 372.5,843.5C 362.464,843.213 352.797,841.546 343.5,838.5 Z"/></g>
<g><path style="opacity:1" fill="#a31c2d" d="M 460.5,840.5 C 459.77,841.712 458.77,842.712 457.5,843.5C 458.5,844.167 459.5,844.833 460.5,845.5C 460.167,845.833 459.833,846.167 459.5,846.5C 457.817,845.408 455.984,844.741 454,844.5C 451.202,845.599 448.369,846.599 445.5,847.5C 446.04,848.748 446.707,849.915 447.5,851C 449.095,850.383 450.428,850.716 451.5,852C 450.483,853.049 450.316,854.216 451,855.5C 453.111,858.059 454.944,860.726 456.5,863.5C 451.123,858.453 446.457,852.786 442.5,846.5C 448.52,844.497 454.52,842.497 460.5,840.5 Z"/></g>
<g><path style="opacity:1" fill="#d792a0" d="M 506.5,895.5 C 508.475,885.554 509.142,875.221 508.5,864.5C 512.983,856.518 519.317,850.351 527.5,846C 530.167,845.333 532.833,845.333 535.5,846C 536.704,847.353 537.371,849.019 537.5,851C 535.957,868.047 533.124,884.88 529,901.5C 526.078,910.676 522.078,919.343 517,927.5C 507.752,937.763 497.419,939.097 486,931.5C 477.274,918.137 475.274,903.804 480,888.5C 484.343,879.306 491.51,874.306 501.5,873.5C 502.822,880.767 503.489,888.101 503.5,895.5C 504.5,895.5 505.5,895.5 506.5,895.5 Z"/></g>
<g><path style="opacity:1" fill="#7a1924" d="M 411.5,853.5 C 407.818,855.429 403.818,856.763 399.5,857.5C 401.833,858.832 403.166,860.832 403.5,863.5C 401.209,862.049 399.043,860.382 397,858.5C 396.333,857.833 396.333,857.167 397,856.5C 401.686,854.912 406.519,853.912 411.5,853.5 Z"/></g>
<g><path style="opacity:1" fill="#6f121e" d="M 456.5,863.5 C 459.118,865.452 461.452,867.785 463.5,870.5C 460.167,869.167 457.833,866.833 456.5,863.5 Z"/></g>
<g><path style="opacity:1" fill="#a31324" d="M 466.5,879.5 C 467.845,881.697 469.011,884.03 470,886.5C 470.998,883.972 471.831,883.972 472.5,886.5C 472.444,887.737 471.944,888.737 471,889.5C 470.875,900.215 470.208,910.882 469,921.5C 467.549,919.536 465.716,918.203 463.5,917.5C 455.1,910.091 446.767,902.758 438.5,895.5C 437.622,892.944 436.289,890.61 434.5,888.5C 430.63,886.341 426.963,884.008 423.5,881.5C 416.509,875.842 409.843,869.842 403.5,863.5C 403.166,860.832 401.833,858.832 399.5,857.5C 403.818,856.763 407.818,855.429 411.5,853.5C 419.825,851.296 428.325,849.296 437,847.5C 441.61,852.46 445.943,857.793 450,863.5C 454.78,868.765 459.28,874.098 463.5,879.5C 464.5,879.5 465.5,879.5 466.5,879.5 Z"/></g>
<g><path style="opacity:1" fill="#7a1723" d="M 423.5,881.5 C 426.963,884.008 430.63,886.341 434.5,888.5C 436.289,890.61 437.622,892.944 438.5,895.5C 433.5,890.833 428.5,886.167 423.5,881.5 Z"/></g>
<g><path style="opacity:1" fill="#624046" d="M 508.5,864.5 C 509.142,875.221 508.475,885.554 506.5,895.5C 507.145,885.068 507.811,874.735 508.5,864.5 Z"/></g>
<g><path style="opacity:1" fill="#871723" d="M 466.5,879.5 C 469.572,881.028 472.238,883.028 474.5,885.5C 469.712,900.318 470.712,914.651 477.5,928.5C 476.998,929.521 476.332,929.688 475.5,929C 471.605,924.935 467.605,921.102 463.5,917.5C 465.716,918.203 467.549,919.536 469,921.5C 470.208,910.882 470.875,900.215 471,889.5C 471.944,888.737 472.444,887.737 472.5,886.5C 471.831,883.972 470.998,883.972 470,886.5C 469.011,884.03 467.845,881.697 466.5,879.5 Z"/></g>
<g><path style="opacity:1" fill="#757213" d="M 420.5,930.5 C 422.833,931.167 425.167,931.833 427.5,932.5C 424.753,932.813 422.086,932.48 419.5,931.5C 419.624,930.893 419.957,930.56 420.5,930.5 Z"/></g>
<g><path style="opacity:1" fill="#737015" d="M 450.5,953.5 C 451.043,953.56 451.376,953.893 451.5,954.5C 447.351,955.809 443.351,955.809 439.5,954.5C 443.371,954.815 447.038,954.482 450.5,953.5 Z"/></g>
<g><path style="opacity:1" fill="#dbd232" d="M 536.5,980.5 C 536.389,981.117 536.056,981.617 535.5,982C 521.979,986.778 508.646,986.611 495.5,981.5C 505.819,981.683 516.152,982.016 526.5,982.5C 529.769,981.407 533.103,980.741 536.5,980.5 Z"/></g>
</svg>
